<?xml version="1.0" encoding="utf-8"?>
<!-- Generator: Adobe Illustrator 15.0.2, SVG Export Plug-In . SVG Version: 6.00 Build 0)  -->
<!DOCTYPE svg PUBLIC "-//W3C//DTD SVG 1.1//EN" "http://www.w3.org/Graphics/SVG/1.1/DTD/svg11.dtd">
<svg version="1.1" xmlns="http://www.w3.org/2000/svg" xmlns:xlink="http://www.w3.org/1999/xlink" x="0px" y="0px" width="250px"
	 height="250px" viewBox="0 0 250 250" enable-background="new 0 0 250 250" xml:space="preserve">
<g id="OAK_-_10">
	<text transform="matrix(1 0 0 1 2.877 116.1572)" fill="#FF0000" font-family="'Arial-BoldMT'" font-size="11">330</text>
	<text transform="matrix(1 0 0 1 117.8286 26.2764)" fill="#FF0000" font-family="'Arial-BoldMT'" font-size="11">400</text>
	<text transform="matrix(1 0 0 1 180.5796 46.7139)" fill="#FF0000" font-family="'Arial-BoldMT'" font-size="11">388</text>
	<text transform="matrix(1 0 0 1 212.0483 61.9229)" fill="#FF0000" font-family="'Arial-BoldMT'" font-size="11">367</text>
	<text transform="matrix(1 0 0 1 57.5669 44.2666)" fill="#FF0000" font-family="'Arial-BoldMT'" font-size="11">388</text>
	<text transform="matrix(1 0 0 1 232.6753 89.7197)" fill="#FF0000" font-family="'Arial-BoldMT'" font-size="11">330</text>
	<text transform="matrix(1 0 0 1 24.7109 64.2393)" fill="#FF0000" font-family="'Arial-BoldMT'" font-size="11">367</text>
	<path fill="#AA8D49" stroke="#000000" d="M136.033,233.022l-18.822,0.217l-18.5-16.5c0,0-48.948-13.373-53.198-77.873
		l-21.19-27.242L42.245,71.72L74.45,49.586L98.27,30.99l56.257-0.502l26.053,20.69l30.288,20.532l17.017,39.27l-20.07,27.671
		c-4.25,64.5-53.197,77.873-53.197,77.873l-18.5,16.5"/>
	<path fill="#0A823C" d="M131.496,225.062h-13.455l-16.875-15.05c0,0-44.647-12.198-48.524-71.032l-18.754-26.8l15.066-35.205
		l28.371-20.161l23.824-17.896l51.191-0.253l25.364,19.759l26.456,18.561l16.545,31.105l-21.771,29.43
		c-3.877,58.833-46.773,72.295-46.773,72.295l-16.875,15.051h-13.453"/>
	<path fill="none" stroke="#000000" d="M123.627,43.323"/>
	<path fill="none" stroke="#000000" d="M30.377,44.267"/>
	<polygon fill="#E5E5E5" points="218.445,185.978 224.651,198.837 227.294,199.353 	"/>
	<polygon fill="#DDDDDD" points="214.097,208.463 224.666,198.86 227.31,199.37 	"/>
	<polygon fill="#999999" points="214.08,208.421 226.898,202.131 227.398,199.484 	"/>
	<polygon fill="#727272" points="218.394,185.974 227.884,196.644 227.345,199.283 	"/>
	<polygon fill="#DDDDDD" points="240.693,190.538 227.833,196.745 227.316,199.39 	"/>
	<polygon fill="#D1D1D1" points="236.488,212.757 226.912,202.166 227.427,199.523 	"/>
	<polygon fill="#999999" points="240.673,190.509 230.022,200.019 227.382,199.486 	"/>
	<polygon fill="#727272" points="236.49,212.801 230.162,200.002 227.513,199.51 	"/>
	<g>
		<text transform="matrix(0.8296 -0.5584 0.5584 0.8296 216.1074 187.4961)" font-family="'TimesNewRomanPSMT'" font-size="7.6327">N</text>
	</g>
	<g>
		<text transform="matrix(0.8296 -0.5584 0.5584 0.8296 210.0859 214.2588)" font-family="'TimesNewRomanPSMT'" font-size="7.6327">W</text>
	</g>
	<g>
		<text transform="matrix(0.8296 -0.5584 0.5584 0.8296 237.9668 218.4463)" font-family="'TimesNewRomanPSMT'" font-size="7.6327">S</text>
	</g>
	<g>
		<text transform="matrix(0.8296 -0.5584 0.5584 0.8296 241.9629 192.7578)" font-family="'TimesNewRomanPSMT'" font-size="7.6327">E</text>
	</g>
	<g>
		<path fill="none" stroke="#FFFFFF" stroke-width="2" d="M19.45,115.778"/>
	</g>
</g>
<g id="Grass_Sand_1_-_most">
	<g>
		<circle fill="#A98C48" cx="125.59" cy="177.702" r="5.042"/>
		<path fill="#A98C48" d="M155.49,173.743l3-3.666c0,0-9.381-26.161-32.999-26c-24.027,0.163-34.667,26-34.667,26l3.667,3
			l-2.443,2.93l25.152,25.181c0,0-1.321,11.223,7.816,11.223s7.909-10.366,7.837-11.465l24.689-24.609L155.49,173.743z
			 M144.333,180.493l-16.9,16.901h-4.634l-16.969-16.971v-5.126l16.957-16.956h4.657l16.889,16.887V180.493z"/>
		<path fill="none" stroke="#FFFFFF" stroke-width="2" d="M15.649,93.573"/>
		<path fill="none" stroke="#FFFFFF" stroke-width="2" d="M125.245,204.252"/>
		<path fill="none" stroke="#FFFFFF" stroke-width="2" d="M231.985,94.251"/>
	</g>
</g>
<g id="Bases_and_chalk_lines-ALL">
	<g>
		<path fill="none" stroke="#FFFFFF" stroke-width="2" d="M15.649,93.573"/>
		<path fill="none" stroke="#FFFFFF" stroke-width="2" d="M125.245,204.252"/>
		<path fill="none" stroke="#FFFFFF" stroke-width="2" d="M231.985,94.251"/>
	</g>
	<rect id="mound" x="123.173" y="176.677" fill="#FFFFFF" stroke="#FFFFFF" width="3.98" height="1.551"/>
	
		<rect x="98.413" y="174.554" transform="matrix(0.7073 -0.7069 0.7069 0.7073 -95.2216 122.1922)" fill="#FFFFFF" stroke="#FFFFFF" width="3.045" height="3.043"/>
	
		<rect x="148.888" y="174.554" transform="matrix(0.7073 -0.7069 0.7069 0.7073 -80.4461 157.8751)" fill="#FFFFFF" stroke="#FFFFFF" width="3.045" height="3.043"/>
	
		<rect x="123.651" y="149.316" transform="matrix(0.7069 -0.7073 0.7073 0.7069 -70.0005 132.7347)" fill="#FFFFFF" stroke="#FFFFFF" width="3.045" height="3.044"/>
	<polygon id="homeplate" fill="#FFFFFF" stroke="#FFFFFF" points="126.7,201.884 125.162,203.405 123.654,201.884 123.654,200.361 
		126.7,200.361 	"/>
	<polyline fill="none" stroke="#FFFFFF" stroke-width="1.5" points="234.566,94.251 125.177,203.466 17.941,96.187 	"/>
</g>
</svg>
