<?xml version="1.0" encoding="utf-8"?>
<!-- Generator: Adobe Illustrator 15.0.2, SVG Export Plug-In . SVG Version: 6.00 Build 0)  -->
<!DOCTYPE svg PUBLIC "-//W3C//DTD SVG 1.1//EN" "http://www.w3.org/Graphics/SVG/1.1/DTD/svg11.dtd">
<svg version="1.1" xmlns="http://www.w3.org/2000/svg" xmlns:xlink="http://www.w3.org/1999/xlink" x="0px" y="0px" width="250px"
	 height="250px" viewBox="0 0 250 250" enable-background="new 0 0 250 250" xml:space="preserve">
<g id="TEX_-_13">
	<path fill="#AA8D49" stroke="#000000" d="M27.364,108.905l0.062-13.979l43.752-52.688l19.385-10.794l67.276-0.298l16.045,13.557
		h8.522l37.08,56.442v12.764l-12.028,12.269l-1.582,2.323c0,0-57.176,84.471-63.126,91.973c-8.739,11.019-21.618,12.659-32.247,0.48
		c-11.548-13.23-59.162-75.532-66.86-87.079l0.722-3.367L27.364,108.905z"/>
	<path fill="#0A823C" d="M36.577,109.129v-13.23L75.275,47.24l18.442-10.349l58.892-0.298l15.331,12.805h6.495l37.716,56.213v7.457
		l-13.23,14.192l-0.722,2.406c0,0-54.605,77.457-60.138,84.674c-5.533,7.217-13.712,14.433-21.409,4.09
		c-7.698-10.344-66.632-86.599-66.632-86.599v-4.571L36.577,109.129z"/>
	<text transform="matrix(1 0 0 1 10.2397 90.0322)" fill="#FF0000" font-family="'Arial-BoldMT'" font-size="11">332</text>
	<text transform="matrix(1 0 0 1 48.4463 42.2666)" fill="#FF0000" font-family="'Arial-BoldMT'" font-size="11">390</text>
	<text transform="matrix(1 0 0 1 115.3042 26.2617)" fill="#FF0000" font-family="'Arial-BoldMT'" font-size="11">400</text>
	<text transform="matrix(1 0 0 1 160.9351 31.1475)" fill="#FF0000" font-family="'Arial-BoldMT'" font-size="11">407</text>
	<text transform="matrix(1 0 0 1 196.5601 58.2275)" fill="#FF0000" font-family="'Arial-BoldMT'" font-size="11">381</text>
	<text transform="matrix(1 0 0 1 216.4575 94.6807)" fill="#FF0000" font-family="'Arial-BoldMT'" font-size="11">325</text>
	<polygon fill="#E5E5E5" points="217.187,213.769 226.953,203.351 226.482,200.7 	"/>
	<polygon fill="#DDDDDD" points="239.73,209.734 226.968,203.329 226.493,200.679 	"/>
	<polygon fill="#999999" points="239.697,209.767 229.216,200.068 226.568,200.555 	"/>
	<polygon fill="#727272" points="217.201,213.816 223.743,201.124 226.399,200.676 	"/>
	<polygon fill="#DDDDDD" points="213.437,191.369 223.855,201.135 226.509,200.666 	"/>
	<polygon fill="#D1D1D1" points="235.681,187.298 229.246,200.045 226.594,200.515 	"/>
	<polygon fill="#999999" points="213.417,191.397 226.123,197.914 226.576,200.569 	"/>
	<polygon fill="#727272" points="235.722,187.28 226.056,197.791 226.55,200.438 	"/>
	<g>
		<text transform="matrix(0.8126 0.5828 -0.5828 0.8126 211.9287 216.4727)" font-family="'TimesNewRomanPSMT'" font-size="7.6324">N</text>
	</g>
	<g>
		<text transform="matrix(0.8384 0.5451 -0.5451 0.8384 237.6973 211.7002)" font-family="'TimesNewRomanPSMT'" font-size="7.6327">W</text>
	</g>
	<g>
		<text transform="matrix(0.815 0.5795 -0.5795 0.815 233.9912 185.6992)" font-family="'TimesNewRomanPSMT'" font-size="7.6327">S</text>
	</g>
	<g>
		<text transform="matrix(0.8254 0.5645 -0.5645 0.8254 208.2568 191.0342)" font-family="'TimesNewRomanPSMT'" font-size="7.6323">E</text>
	</g>
</g>
<g id="Grass_Sand_1_-_most">
	<g>
		<circle fill="#A98C48" cx="125.59" cy="177.702" r="5.042"/>
		<path fill="#A98C48" d="M155.49,173.743l3-3.666c0,0-9.381-26.161-32.999-26c-24.027,0.163-34.667,26-34.667,26l3.667,3
			l-2.443,2.93l25.152,25.181c0,0-1.321,11.223,7.816,11.223s7.909-10.366,7.837-11.465l24.689-24.609L155.49,173.743z
			 M144.333,180.493l-16.9,16.901h-4.634l-16.969-16.971v-5.126l16.957-16.956h4.657l16.889,16.887V180.493z"/>
		<path fill="none" stroke="#FFFFFF" stroke-width="2" d="M15.649,93.573"/>
		<path fill="none" stroke="#FFFFFF" stroke-width="2" d="M125.245,204.252"/>
		<path fill="none" stroke="#FFFFFF" stroke-width="2" d="M231.985,94.251"/>
	</g>
</g>
<g id="Bases_and_chalk_lines-ALL">
	<g>
		<path fill="none" stroke="#FFFFFF" stroke-width="2" d="M15.649,93.573"/>
		<path fill="none" stroke="#FFFFFF" stroke-width="2" d="M125.245,204.252"/>
		<path fill="none" stroke="#FFFFFF" stroke-width="2" d="M231.985,94.251"/>
	</g>
	<rect id="mound" x="123.173" y="176.677" fill="#FFFFFF" stroke="#FFFFFF" width="3.98" height="1.551"/>
	
		<rect x="98.413" y="174.554" transform="matrix(0.7073 -0.7069 0.7069 0.7073 -95.2216 122.1922)" fill="#FFFFFF" stroke="#FFFFFF" width="3.045" height="3.043"/>
	
		<rect x="148.888" y="174.554" transform="matrix(0.7073 -0.7069 0.7069 0.7073 -80.4461 157.8751)" fill="#FFFFFF" stroke="#FFFFFF" width="3.045" height="3.043"/>
	
		<rect x="123.651" y="149.316" transform="matrix(0.7069 -0.7073 0.7073 0.7069 -70.0005 132.7347)" fill="#FFFFFF" stroke="#FFFFFF" width="3.045" height="3.044"/>
	<polygon id="homeplate" fill="#FFFFFF" stroke="#FFFFFF" points="126.7,201.884 125.162,203.405 123.654,201.884 123.654,200.361 
		126.7,200.361 	"/>
	<polyline fill="none" stroke="#FFFFFF" stroke-width="1.5" points="234.566,94.251 125.177,203.466 17.941,96.187 	"/>
</g>
</svg>
