<?xml version="1.0" encoding="utf-8"?>
<!-- Generator: Adobe Illustrator 15.0.2, SVG Export Plug-In . SVG Version: 6.00 Build 0)  -->
<!DOCTYPE svg PUBLIC "-//W3C//DTD SVG 1.1//EN" "http://www.w3.org/Graphics/SVG/1.1/DTD/svg11.dtd">
<svg version="1.1" xmlns="http://www.w3.org/2000/svg" xmlns:xlink="http://www.w3.org/1999/xlink" x="0px" y="0px" width="250px"
	 height="250px" viewBox="0 0 250 250" enable-background="new 0 0 250 250" xml:space="preserve">
<g id="ARI_-_15">
	<path fill="#AA8D49" stroke="#000000" d="M140.836,27.254v2.509h20.575l60.092,54.505l2.549-0.098v16.158v1.388l-1.387,2.181v7.62
		l-0.813-0.027l-22.943,23.264l-23.255,40.189c0,0-38.367,42.704-43.067,44.989c-1.304,0.634-2.996,1.847-7.004,1.886
		c-2.898,0.027-5.089-0.904-6.985-1.886c-4.332-2.244-44.195-44.989-44.195-44.989l-23.255-40.189L27.151,110.87h-2.2V80.695h5.972
		l58.79-50.933h20.574v-2.509H140.836z"/>
	<path fill="#0A823C" d="M155.422,36.008H95.13L32.699,90.281v18.396l27.791,28.93c4.968,9.399,12.085,25.11,18.531,32.495
		c6.445,7.386,25.781,29.005,25.781,29.005l13.448,14.376l0,0c1.967,2.171,4.803,3.537,7.964,3.537c3.163,0,5.995-1.368,7.962-3.537
		l0,0h0.001c0.575-0.635,1.079-1.335,1.492-2.093l8.897-10.506c0,0,4.058-5.689,16.277-18.984
		c12.22-13.294,15.133-21.913,25.473-40.713l30.626-30.485V92.243L155.422,36.008z"/>
	<text transform="matrix(1 0 0 1 4.2974 85.8486)" fill="#FF0000" font-family="'Arial-BoldMT'" font-size="11">328</text>
	<text transform="matrix(1 0 0 1 37.915 53.2822)" fill="#FF0000" font-family="'Arial-BoldMT'" font-size="11">376</text>
	<text transform="matrix(1 0 0 1 72.666 26.1309)" fill="#FF0000" font-family="'Arial-BoldMT'" font-size="11">412</text>
	<text transform="matrix(1 0 0 1 159.1665 26.1299)" fill="#FF0000" font-family="'Arial-BoldMT'" font-size="11">414</text>
	<text transform="matrix(1 0 0 1 117.2983 22.5293)" fill="#FF0000" font-family="'Arial-BoldMT'" font-size="11">407</text>
	<text transform="matrix(1 0 0 1 195.519 53.2812)" fill="#FF0000" font-family="'Arial-BoldMT'" font-size="11">376</text>
	<text transform="matrix(1 0 0 1 230.1304 85.8486)" fill="#FF0000" font-family="'Arial-BoldMT'" font-size="11">335</text>
	<polygon fill="#E5E5E5" points="226.397,182.411 224.366,196.545 226.27,198.448 	"/>
	<polygon fill="#DDDDDD" points="210.235,198.637 224.364,196.572 226.274,198.472 	"/>
	<polygon fill="#999999" points="210.245,198.592 224.391,200.532 226.284,198.616 	"/>
	<polygon fill="#727272" points="226.358,182.38 228.272,196.53 226.352,198.42 	"/>
	<polygon fill="#DDDDDD" points="242.307,198.618 228.172,196.586 226.268,198.491 	"/>
	<polygon fill="#D1D1D1" points="226.413,214.702 224.381,200.568 226.284,198.664 	"/>
	<polygon fill="#999999" points="242.307,198.584 228.161,200.524 226.268,198.608 	"/>
	<polygon fill="#727272" points="226.389,214.74 228.286,200.588 226.364,198.701 	"/>
	<g>
		<text transform="matrix(1 0 0 1 223.6104 182.3613)" font-family="'TimesNewRomanPSMT'" font-size="7.6325">N</text>
	</g>
	<g>
		<text transform="matrix(1 0 0 1 203.666 201.1982)" font-family="'TimesNewRomanPSMT'" font-size="7.6325">W</text>
	</g>
	<g>
		<text transform="matrix(1 0 0 1 224.457 220.2451)" font-family="'TimesNewRomanPSMT'" font-size="7.6325">S</text>
	</g>
	<g>
		<text transform="matrix(1 0 0 1 242.1172 201.168)" font-family="'TimesNewRomanPSMT'" font-size="7.6325">E</text>
	</g>
	<path fill="none" stroke="#FFFFFF" stroke-width="2" d="M125.393,200.387"/>
	<path fill="none" stroke="#FFFFFF" stroke-width="2" d="M231.13,94.978"/>
	<path fill="none" stroke="#FFFFFF" stroke-width="2" d="M16.683,108.429"/>
	<path fill="none" stroke="#FFFFFF" stroke-width="2" d="M125.02,200.573"/>
</g>
<g id="Grass_Sand_3__x28_ARI_x2C__PIT_x29_">
	<g>
		<path fill="#AA8D49" d="M100.326,173.562l2.184,2.184L100.326,173.562z M104.28,177.104v-5.57l18.425-18.424h5.062l18.353,18.35
			v5.72l-18.366,18.366h-0.227v-14.365c1.836-0.863,3.12-2.7,3.12-4.863c0-2.986-2.422-5.41-5.408-5.41
			c-2.988,0-5.41,2.424-5.41,5.41c0,2.193,1.311,4.072,3.188,4.922v14.307h-0.296L104.28,177.104z M147.316,204.522l-15.042-2.548
			l-0.009-3.019l33.25-34.5c-5.545-16.5-21.882-29.417-40.25-29.417c-19.104,0-34.582,12.386-39.5,29.917l32.26,33.723v3.275
			l-13.488,3.597l7.495,8.565l7.483-6.565c1.617,0.881,4.152,2.47,6.125,2.47c2.016,0,4.461-1.606,6.102-2.521l8.344,5.974
			L147.316,204.522z"/>
	</g>
</g>
<g id="Bases_and_chalk_lines-ALL">
	<g>
		<path fill="none" stroke="#FFFFFF" stroke-width="2" d="M15.649,93.573"/>
		<path fill="none" stroke="#FFFFFF" stroke-width="2" d="M125.245,204.252"/>
		<path fill="none" stroke="#FFFFFF" stroke-width="2" d="M231.985,94.251"/>
	</g>
	<rect id="mound" x="123.173" y="176.677" fill="#FFFFFF" stroke="#FFFFFF" width="3.98" height="1.551"/>
	
		<rect x="98.413" y="174.554" transform="matrix(0.7073 -0.7069 0.7069 0.7073 -95.2216 122.1922)" fill="#FFFFFF" stroke="#FFFFFF" width="3.045" height="3.043"/>
	
		<rect x="148.888" y="174.554" transform="matrix(0.7073 -0.7069 0.7069 0.7073 -80.4461 157.8751)" fill="#FFFFFF" stroke="#FFFFFF" width="3.045" height="3.043"/>
	
		<rect x="123.651" y="149.316" transform="matrix(0.7069 -0.7073 0.7073 0.7069 -70.0005 132.7347)" fill="#FFFFFF" stroke="#FFFFFF" width="3.045" height="3.044"/>
	<polygon id="homeplate" fill="#FFFFFF" stroke="#FFFFFF" points="126.7,201.884 125.162,203.405 123.654,201.884 123.654,200.361 
		126.7,200.361 	"/>
	<polyline fill="none" stroke="#FFFFFF" stroke-width="1.5" points="234.566,94.251 125.177,203.466 17.941,96.187 	"/>
</g>
</svg>
