<?xml version="1.0" encoding="utf-8"?>
<!-- Generator: Adobe Illustrator 15.0.2, SVG Export Plug-In . SVG Version: 6.00 Build 0)  -->
<!DOCTYPE svg PUBLIC "-//W3C//DTD SVG 1.1//EN" "http://www.w3.org/Graphics/SVG/1.1/DTD/svg11.dtd">
<svg version="1.1" xmlns="http://www.w3.org/2000/svg" xmlns:xlink="http://www.w3.org/1999/xlink" x="0px" y="0px" width="250px"
	 height="250px" viewBox="0 0 250 250" enable-background="new 0 0 250 250" xml:space="preserve">
<g id="BAL_2">
	<text transform="matrix(1 0 0 1 7.4229 91.5371)" fill="#FF0000" font-family="'Arial-BoldMT'" font-size="11">333</text>
	<text transform="matrix(1 0 0 1 191.1216 51.2988)" fill="#FF0000" font-family="'Arial-BoldMT'" font-size="11">373</text>
	<text transform="matrix(1 0 0 1 216.7925 93.5732)" fill="#FF0000" font-family="'Arial-BoldMT'" font-size="11">318</text>
	<text transform="matrix(1 0 0 1 44.5337 48.6504)" fill="#FF0000" font-family="'Arial-BoldMT'" font-size="11">364</text>
	<text transform="matrix(1 0 0 1 100.1987 22.3105)" fill="#FF0000" font-family="'Arial-BoldMT'" font-size="11">410</text>
	<text transform="matrix(1 0 0 1 130.6313 27.8818)" fill="#FF0000" font-family="'Arial-BoldMT'" font-size="11">400</text>
	<path fill="#AA8D49" stroke="#000000" d="M24.323,108.19l13.276-40.123l73.551-42.544l77.072,25.641l35.074,57.689
		c0,0-61.326,94.277-70.881,107.929c-9.556,13.65-34.84,24.971-54.633-3.013C77.988,185.785,24.323,108.19,24.323,108.19z"/>
	<path fill="#0A823B" d="M31.32,101.871l10.163-30.982l71.171-41.079l73.829,24.714l30.31,52.324c0,0-56.479,91.142-65.783,104.435
		c-9.305,13.292-31.537,25.529-50.811-1.719C80.924,182.314,31.32,101.871,31.32,101.871z"/>
	<path fill="none" stroke="#FFFFFF" stroke-width="2" d="M19.516,114.097"/>
	<path fill="none" stroke="#FFFFFF" stroke-width="2" d="M234.989,99.561"/>
	<g>
		<polygon fill="#E5E5E5" points="218.56,187.087 224.868,199.897 227.514,200.393 		"/>
		<polygon fill="#DDDDDD" points="214.389,209.605 224.881,199.921 227.53,200.409 		"/>
		<polygon fill="#999999" points="214.372,209.563 227.14,203.174 227.62,200.523 		"/>
		<polygon fill="#727272" points="218.51,187.083 228.083,197.68 227.565,200.323 		"/>
		<polygon fill="#DDDDDD" points="240.843,191.474 228.033,197.78 227.536,200.429 		"/>
		<polygon fill="#D1D1D1" points="236.813,213.725 227.153,203.209 227.648,200.562 		"/>
		<polygon fill="#999999" points="240.825,191.445 230.247,201.037 227.603,200.525 		"/>
		<polygon fill="#727272" points="236.815,213.77 230.386,201.02 227.735,200.548 		"/>
		<g>
			
				<text transform="matrix(0.8252 -0.5648 0.5648 0.8252 216.2412 188.6348)" font-family="'TimesNewRomanPSMT'" font-size="7.6321">N</text>
		</g>
		<g>
			
				<text transform="matrix(0.8252 -0.5648 0.5648 0.8252 210.4238 215.4424)" font-family="'TimesNewRomanPSMT'" font-size="7.6321">W</text>
		</g>
		<g>
			
				<text transform="matrix(0.8252 -0.5648 0.5648 0.8252 238.3369 219.4131)" font-family="'TimesNewRomanPSMT'" font-size="7.6321">S</text>
		</g>
		<g>
			
				<text transform="matrix(0.8252 -0.5648 0.5648 0.8252 242.1348 193.6973)" font-family="'TimesNewRomanPSMT'" font-size="7.6321">E</text>
		</g>
	</g>
	<path fill="none" stroke="#FFFFFF" stroke-width="2" d="M19.338,114.481"/>
	<path fill="none" stroke="#FFFFFF" stroke-width="2" d="M126.581,202.214"/>
	<path fill="none" stroke="#FFFFFF" stroke-width="2" d="M227.964,98.135"/>
</g>
<g id="Grass_Sand_1_-_most">
	<g>
		<circle fill="#A98C48" cx="125.59" cy="177.702" r="5.042"/>
		<path fill="#A98C48" d="M155.49,173.743l3-3.666c0,0-9.381-26.161-32.999-26c-24.027,0.163-34.667,26-34.667,26l3.667,3
			l-2.443,2.93l25.152,25.181c0,0-1.321,11.223,7.816,11.223s7.909-10.366,7.837-11.465l24.689-24.609L155.49,173.743z
			 M144.333,180.493l-16.9,16.901h-4.634l-16.969-16.971v-5.126l16.957-16.956h4.657l16.889,16.887V180.493z"/>
		<path fill="none" stroke="#FFFFFF" stroke-width="2" d="M15.649,93.573"/>
		<path fill="none" stroke="#FFFFFF" stroke-width="2" d="M125.245,204.252"/>
		<path fill="none" stroke="#FFFFFF" stroke-width="2" d="M231.985,94.251"/>
	</g>
</g>
<g id="Bases_and_chalk_lines-ALL">
	<g>
		<path fill="none" stroke="#FFFFFF" stroke-width="2" d="M15.649,93.573"/>
		<path fill="none" stroke="#FFFFFF" stroke-width="2" d="M125.245,204.252"/>
		<path fill="none" stroke="#FFFFFF" stroke-width="2" d="M231.985,94.251"/>
	</g>
	<rect id="mound" x="123.173" y="176.677" fill="#FFFFFF" stroke="#FFFFFF" width="3.98" height="1.551"/>
	
		<rect x="98.413" y="174.554" transform="matrix(0.7073 -0.7069 0.7069 0.7073 -95.2216 122.1922)" fill="#FFFFFF" stroke="#FFFFFF" width="3.045" height="3.043"/>
	
		<rect x="148.888" y="174.554" transform="matrix(0.7073 -0.7069 0.7069 0.7073 -80.4461 157.8751)" fill="#FFFFFF" stroke="#FFFFFF" width="3.045" height="3.043"/>
	
		<rect x="123.651" y="149.316" transform="matrix(0.7069 -0.7073 0.7073 0.7069 -70.0005 132.7347)" fill="#FFFFFF" stroke="#FFFFFF" width="3.045" height="3.044"/>
	<polygon id="homeplate" fill="#FFFFFF" stroke="#FFFFFF" points="126.7,201.884 125.162,203.405 123.654,201.884 123.654,200.361 
		126.7,200.361 	"/>
	<polyline fill="none" stroke="#FFFFFF" stroke-width="1.5" points="234.566,94.251 125.177,203.466 17.941,96.187 	"/>
</g>
</svg>
