<?xml version="1.0" encoding="utf-8"?>
<!-- Generator: Adobe Illustrator 15.0.2, SVG Export Plug-In . SVG Version: 6.00 Build 0)  -->
<!DOCTYPE svg PUBLIC "-//W3C//DTD SVG 1.1//EN" "http://www.w3.org/Graphics/SVG/1.1/DTD/svg11.dtd">
<svg version="1.1" xmlns="http://www.w3.org/2000/svg" xmlns:xlink="http://www.w3.org/1999/xlink" x="0px" y="0px" width="250px"
	 height="250px" viewBox="0 0 250 250" enable-background="new 0 0 250 250" xml:space="preserve">
<g id="LAD_-_22">
	<path fill="#AA8D49" stroke="#000000" d="M25.776,108.812l35.355,35.516l8.534,39.351l17.542,26.075
		c0,0,12.323,18.714,36.98,18.964c22.371,0.227,33.646-12.005,36.965-15.798c4.238-4.845,13.289-14.544,22.297-29.241l6.791-39.974
		l34.494-34.607c0,0,2.205-3.189,0.309-9.827s-15.138-32.409-33.154-45.684c-15.386-11.337-38.833-21.331-68.699-20.947
		c-36.979,0.475-68.764,21.366-81.091,32.744C32.724,74.035,27.3,83.569,24.556,89.088C19.986,98.279,25.776,108.812,25.776,108.812
		z"/>
	<path fill="#0A823C" d="M67.768,146.224l-31.78-33.876c0,0-5.743-11.881-1.143-21.093c3.687-7.383,43.637-48.257,90.316-48.257
		c46.681,0,83.812,37.57,90.398,59.116c0,0,3.098,4.93-1.555,11.858c-4.135,6.157-29.134,29.406-29.134,29.406l-5.691,37.49
		l-20.858,25.565c0,0-11.893,16.119-33.661,16.119s-32.239-17.067-32.239-17.067l-17.067-25.602L67.768,146.224z"/>
	<text transform="matrix(1 0 0 1 4.3511 93.5732)" fill="#FF0000" font-family="'Arial-BoldMT'" font-size="11">330</text>
	<text transform="matrix(1 0 0 1 116.0347 29.3076)" fill="#FF0000" font-family="'Arial-BoldMT'" font-size="11">395</text>
	<text transform="matrix(1 0 0 1 182.2026 46.0342)" fill="#FF0000" font-family="'Arial-BoldMT'" font-size="11">385</text>
	<text transform="matrix(1 0 0 1 43.5537 46.0342)" fill="#FF0000" font-family="'Arial-BoldMT'" font-size="11">385</text>
	<text transform="matrix(1 0 0 1 226.0923 93.5732)" fill="#FF0000" font-family="'Arial-BoldMT'" font-size="11">330</text>
	<polygon fill="#E5E5E5" points="218.91,185.335 224.099,198.639 226.693,199.357 	"/>
	<polygon fill="#DDDDDD" points="212.828,207.414 224.111,198.663 226.707,199.376 	"/>
	<polygon fill="#999999" points="212.813,207.371 226.083,202.097 226.787,199.497 	"/>
	<polygon fill="#727272" points="218.861,185.327 227.492,196.702 226.75,199.293 	"/>
	<polygon fill="#DDDDDD" points="240.736,191.611 227.433,196.8 226.711,199.396 	"/>
	<polygon fill="#D1D1D1" points="234.817,213.436 226.092,202.133 226.811,199.538 	"/>
	<polygon fill="#999999" points="240.72,191.581 229.361,200.233 226.771,199.498 	"/>
	<polygon fill="#727272" points="234.816,213.48 229.501,200.228 226.9,199.531 	"/>
	<g>
		<text transform="matrix(0.8705 -0.4922 0.4922 0.8705 216.458 186.6631)" font-family="'TimesNewRomanPSMT'" font-size="7.6325">N</text>
	</g>
	<g>
		<text transform="matrix(0.8705 -0.4922 0.4922 0.8705 208.3662 212.875)" font-family="'TimesNewRomanPSMT'" font-size="7.6325">W</text>
	</g>
	<g>
		<text transform="matrix(0.8705 -0.4922 0.4922 0.8705 235.8408 219.2197)" font-family="'TimesNewRomanPSMT'" font-size="7.6325">S</text>
	</g>
	<g>
		<text transform="matrix(0.8705 -0.4922 0.4922 0.8705 241.8252 193.9238)" font-family="'TimesNewRomanPSMT'" font-size="7.6325">E</text>
	</g>
</g>
<g id="Grass_Sand_1_-_most">
	<g>
		<circle fill="#A98C48" cx="125.59" cy="177.702" r="5.042"/>
		<path fill="#A98C48" d="M155.49,173.743l3-3.666c0,0-9.381-26.161-32.999-26c-24.027,0.163-34.667,26-34.667,26l3.667,3
			l-2.443,2.93l25.152,25.181c0,0-1.321,11.223,7.816,11.223s7.909-10.366,7.837-11.465l24.689-24.609L155.49,173.743z
			 M144.333,180.493l-16.9,16.901h-4.634l-16.969-16.971v-5.126l16.957-16.956h4.657l16.889,16.887V180.493z"/>
		<path fill="none" stroke="#FFFFFF" stroke-width="2" d="M15.649,93.573"/>
		<path fill="none" stroke="#FFFFFF" stroke-width="2" d="M125.245,204.252"/>
		<path fill="none" stroke="#FFFFFF" stroke-width="2" d="M231.985,94.251"/>
	</g>
</g>
<g id="Bases_and_chalk_lines-ALL">
	<g>
		<path fill="none" stroke="#FFFFFF" stroke-width="2" d="M15.649,93.573"/>
		<path fill="none" stroke="#FFFFFF" stroke-width="2" d="M125.245,204.252"/>
		<path fill="none" stroke="#FFFFFF" stroke-width="2" d="M231.985,94.251"/>
	</g>
	<rect id="mound" x="123.173" y="176.677" fill="#FFFFFF" stroke="#FFFFFF" width="3.98" height="1.551"/>
	
		<rect x="98.413" y="174.554" transform="matrix(0.7073 -0.7069 0.7069 0.7073 -95.2216 122.1922)" fill="#FFFFFF" stroke="#FFFFFF" width="3.045" height="3.043"/>
	
		<rect x="148.888" y="174.554" transform="matrix(0.7073 -0.7069 0.7069 0.7073 -80.4461 157.8751)" fill="#FFFFFF" stroke="#FFFFFF" width="3.045" height="3.043"/>
	
		<rect x="123.651" y="149.316" transform="matrix(0.7069 -0.7073 0.7073 0.7069 -70.0005 132.7347)" fill="#FFFFFF" stroke="#FFFFFF" width="3.045" height="3.044"/>
	<polygon id="homeplate" fill="#FFFFFF" stroke="#FFFFFF" points="126.7,201.884 125.162,203.405 123.654,201.884 123.654,200.361 
		126.7,200.361 	"/>
	<polyline fill="none" stroke="#FFFFFF" stroke-width="1.5" points="234.566,94.251 125.177,203.466 17.941,96.187 	"/>
</g>
</svg>
