<?xml version="1.0" encoding="utf-8"?>
<!-- Generator: Adobe Illustrator 15.0.2, SVG Export Plug-In . SVG Version: 6.00 Build 0)  -->
<!DOCTYPE svg PUBLIC "-//W3C//DTD SVG 1.1//EN" "http://www.w3.org/Graphics/SVG/1.1/DTD/svg11.dtd">
<svg version="1.1" xmlns="http://www.w3.org/2000/svg" xmlns:xlink="http://www.w3.org/1999/xlink" x="0px" y="0px" width="250px"
	 height="250px" viewBox="0 0 250 250" enable-background="new 0 0 250 250" xml:space="preserve">
<g id="DET_-_2394">
	<path fill="#AA8D49" stroke="#000000" d="M173.585,186.285h3.396l26.865-39.217v-14.514l21.768-22.145V98.984l-29.163-30.755
		l-2.779-10.808l-35.92-33.261l-65.641,2.13l-74.029,74.562l25.878,25.854l-0.069,5.848l30.262,49.717
		c0,0,27.482,28.408,34.276,34.893c6.794,6.486,21.616,13.588,37.056-2.16s28.408-29.336,28.408-29.336"/>
	<path fill="#0A823C" d="M195.306,129.086l23.883-24.617l-29.804-31.779l-2.666-10.333l-31.57-32.503l-60.333,2.567L26.017,98.784
		l25.623,24.302l0.333,8.332l30.333,49c0,0,26.829,26.83,30,30c5,5,15.333,12,26.665,0.668c14.67-14.67,30.662-31.379,30.662-31.379
		l2.006-1.289l23.994-34.457L195.306,129.086z"/>
	<text transform="matrix(1 0 0 1 7.3403 88.1377)" fill="#FF0000" font-family="'Arial-BoldMT'" font-size="11">345</text>
	<text transform="matrix(1 0 0 1 39.9102 52.2568)" fill="#FF0000" font-family="'Arial-BoldMT'" font-size="11">370</text>
	<text transform="matrix(1 0 0 1 113.9976 20.5664)" fill="#FF0000" font-family="'Arial-BoldMT'" font-size="11">420</text>
	<text transform="matrix(1 0 0 1 197.4858 57.3975)" fill="#FF0000" font-family="'Arial-BoldMT'" font-size="11">365</text>
	<text transform="matrix(1 0 0 1 225.6372 94.251)" fill="#FF0000" font-family="'Arial-BoldMT'" font-size="11">330</text>
	<polygon fill="#E5E5E5" points="215.455,211.688 226.062,202.128 225.817,199.447 	"/>
	<polygon fill="#DDDDDD" points="238.257,209.565 226.08,202.108 225.829,199.428 	"/>
	<polygon fill="#999999" points="238.221,209.594 228.593,199.049 225.914,199.31 	"/>
	<polygon fill="#727272" points="215.464,211.736 223.051,199.64 225.736,199.417 	"/>
	<polygon fill="#DDDDDD" points="213.604,189.052 223.163,199.66 225.846,199.416 	"/>
	<polygon fill="#D1D1D1" points="236.111,186.867 228.625,199.027 225.944,199.272 	"/>
	<polygon fill="#999999" points="213.582,189.078 225.693,196.642 225.921,199.325 	"/>
	<polygon fill="#727272" points="236.154,186.854 225.637,196.513 225.906,199.192 	"/>
	<g>
		<text transform="matrix(0.7717 0.636 -0.636 0.7717 210.001 214.0088)" font-family="'TimesNewRomanPSMT'" font-size="7.6334">N</text>
	</g>
	<g>
		<text transform="matrix(0.7558 0.6548 -0.6548 0.7558 236.0869 211.1113)" font-family="'TimesNewRomanPSMT'" font-size="7.632">W</text>
	</g>
	<g>
		<text transform="matrix(0.7153 0.6989 -0.6989 0.7153 234.7686 185.417)" font-family="'TimesNewRomanPSMT'" font-size="7.6327">S</text>
	</g>
	<g>
		<text transform="matrix(0.771 0.6368 -0.6368 0.771 207.9854 187.416)" font-family="'TimesNewRomanPSMT'" font-size="7.632">E</text>
	</g>
</g>
<g id="Grass_Sand_4__x28_DET_x29_">
	<g>
		<path fill="#A98C48" d="M158.49,170.077c0,0-9.381-26.161-32.999-26c-24.027,0.163-34.667,26-34.667,26l3.667,3l-2.443,2.93
			l25.152,25.181v10.249l7.741,5l7.875-5v-10.49l0.037-0.001l24.689-24.609l-2.053-2.593L158.49,170.077z M144.333,180.493
			l-16.9,16.901h-0.279v-15.031c1.837-0.753,3.132-2.554,3.132-4.661c0-2.784-2.256-5.041-5.041-5.041s-5.042,2.257-5.042,5.041
			c0,2.044,1.222,3.795,2.971,4.586v15.106h-0.374l-16.969-16.971v-5.126l16.957-16.956h4.657l16.889,16.887V180.493z"/>
		<path fill="none" stroke="#FFFFFF" stroke-width="2" d="M15.649,93.573"/>
		<path fill="none" stroke="#FFFFFF" stroke-width="2" d="M125.245,204.252"/>
		<path fill="none" stroke="#FFFFFF" stroke-width="2" d="M231.985,94.251"/>
	</g>
</g>
<g id="Bases_and_chalk_lines-ALL">
	<g>
		<path fill="none" stroke="#FFFFFF" stroke-width="2" d="M15.649,93.573"/>
		<path fill="none" stroke="#FFFFFF" stroke-width="2" d="M125.245,204.252"/>
		<path fill="none" stroke="#FFFFFF" stroke-width="2" d="M231.985,94.251"/>
	</g>
	<rect id="mound" x="123.173" y="176.677" fill="#FFFFFF" stroke="#FFFFFF" width="3.98" height="1.551"/>
	
		<rect x="98.413" y="174.554" transform="matrix(0.7073 -0.7069 0.7069 0.7073 -95.2216 122.1922)" fill="#FFFFFF" stroke="#FFFFFF" width="3.045" height="3.043"/>
	
		<rect x="148.888" y="174.554" transform="matrix(0.7073 -0.7069 0.7069 0.7073 -80.4461 157.8751)" fill="#FFFFFF" stroke="#FFFFFF" width="3.045" height="3.043"/>
	
		<rect x="123.651" y="149.316" transform="matrix(0.7069 -0.7073 0.7073 0.7069 -70.0005 132.7347)" fill="#FFFFFF" stroke="#FFFFFF" width="3.045" height="3.044"/>
	<polygon id="homeplate" fill="#FFFFFF" stroke="#FFFFFF" points="126.7,201.884 125.162,203.405 123.654,201.884 123.654,200.361 
		126.7,200.361 	"/>
	<polyline fill="none" stroke="#FFFFFF" stroke-width="1.5" points="234.566,94.251 125.177,203.466 17.941,96.187 	"/>
</g>
</svg>
