<?xml version="1.0" encoding="utf-8"?>
<!-- Generator: Adobe Illustrator 15.0.2, SVG Export Plug-In . SVG Version: 6.00 Build 0)  -->
<!DOCTYPE svg PUBLIC "-//W3C//DTD SVG 1.1//EN" "http://www.w3.org/Graphics/SVG/1.1/DTD/svg11.dtd">
<svg version="1.1" xmlns="http://www.w3.org/2000/svg" xmlns:xlink="http://www.w3.org/1999/xlink" x="0px" y="0px" width="250px"
	 height="250px" viewBox="0 0 250 250" enable-background="new 0 0 250 250" xml:space="preserve">
<g id="SF_-_2395">
	<ellipse fill="#AA8D49" cx="125.417" cy="177.418" rx="5.053" ry="5.017"/>
	<path fill="#AA8D49" d="M166.703,168.237l-1.169-2.819c0,0-10.356-27.532-39.422-27.698c-28.396-0.162-39.087,28.527-39.087,28.527
		l-1.836,1.99l8.852,8.956l26.306,26.074c0,0-1.354,8.573,5.433,8.589c7.018,0.017,5.583-8.029,5.512-9.121l24.722-24.381
		L166.703,168.237z M146.826,181.174l-19.043,18.741l-4.287,0.144l-19.012-18.88v-5.101l19.666-18.53l3.299,0.074l19.377,19.24
		V181.174z"/>
	<rect x="123.282" y="176.447" fill="#FFFFFF" width="4.324" height="1.462"/>
	<g>
		
			<rect x="124.262" y="152.857" transform="matrix(0.7071 -0.7071 0.7071 0.7071 -72.3308 134.1816)" fill="#FFFFFF" width="3.088" height="3.089"/>
		
			<rect x="99.897" y="176.217" transform="matrix(0.7071 -0.7071 0.7071 0.7071 -95.9848 123.7946)" fill="#FFFFFF" width="3.088" height="3.089"/>
		
			<rect x="148.258" y="176.32" transform="matrix(0.7071 -0.7071 0.7071 0.7071 -81.8933 158.0216)" fill="#FFFFFF" width="3.088" height="3.089"/>
		<rect x="123.992" y="204.099" fill="#FFFFFF" width="3.088" height="3.089"/>
	</g>
	<path fill="#AA8D49" stroke="#000000" d="M112.177,216.997h-3.25l-40.25-52l-3.5,1.25l-22.75-38.75l-20.045-19.733l5.25-11.75
		L86.8,33.555l91-4l14.138,35.883l8,4l25.302,43.743l-7.25,3l-9.75,9.5c0,0-11.562,27.066-12.562,28.816l-8.5,11.5l-2.5-1.5
		l-43,52.5l-2.25-0.25C139.427,216.747,126.119,232.854,112.177,216.997z"/>
	<path fill="#0A823C" d="M113.003,209.711l-41.668-51.419l-3.191,0.14L48.149,121.52l-15.426-14.698l2.76-7.809l53.354-58.569
		l83.863-4l13.214,34.328l7.295,3.648l21.716,34.602l-6.611,7.736l-5.891,6.663c0,0-12.365,27.7-13.277,29.296l-4.75,6.487
		l-3.281-1.368l-43.264,51.646C137.851,209.482,126.119,228.52,113.003,209.711z"/>
	<text transform="matrix(1 0 0 1 13.4956 89.5342)" fill="#FF0000" font-family="'Arial-BoldMT'" font-size="11">339</text>
	<text transform="matrix(1 0 0 1 45.8906 53.2334)" fill="#FF0000" font-family="'Arial-BoldMT'" font-size="11">364</text>
	<text transform="matrix(1 0 0 1 116.9419 28.0957)" fill="#FF0000" font-family="'Arial-BoldMT'" font-size="11">399</text>
	<text transform="matrix(1 0 0 1 176.1274 25.4482)" fill="#FF0000" font-family="'Arial-BoldMT'" font-size="11">421</text>
	<text transform="matrix(1 0 0 1 215.9116 96.041)" fill="#FF0000" font-family="'Arial-BoldMT'" font-size="11">309</text>
	<polygon fill="#E5E5E5" points="209.936,198.129 223.947,200.882 225.945,199.077 	"/>
	<polygon fill="#DDDDDD" points="225.313,215.1 223.974,200.884 225.969,199.074 	"/>
	<polygon fill="#999999" points="225.268,215.089 227.93,201.06 226.114,199.072 	"/>
	<polygon fill="#727272" points="209.903,198.166 224.131,196.979 225.92,198.993 	"/>
	<polygon fill="#DDDDDD" points="226.935,183.069 224.182,197.081 225.988,199.081 	"/>
	<polygon fill="#D1D1D1" points="242.185,199.766 227.965,201.071 226.161,199.073 	"/>
	<polygon fill="#999999" points="226.901,183.066 228.116,197.294 226.105,199.086 	"/>
	<polygon fill="#727272" points="242.221,199.791 228.185,197.173 226.203,198.995 	"/>
	<g>
		<text transform="matrix(0.9988 0.0487 -0.0487 0.9988 204.3984 200.4941)" font-family="'TimesNewRomanPSMT'" font-size="7.6324">N</text>
	</g>
	<g>
		<text transform="matrix(0.9986 0.053 -0.053 0.9986 221.3809 220.4648)" font-family="'TimesNewRomanPSMT'" font-size="7.6325">W</text>
	</g>
	<g>
		<text transform="matrix(0.9974 0.0727 -0.0727 0.9974 242.8179 202.1953)" font-family="'TimesNewRomanPSMT'" font-size="7.6329">S</text>
	</g>
	<g>
		<text transform="matrix(0.999 0.0447 -0.0447 0.999 224.5469 183.083)" font-family="'TimesNewRomanPSMT'" font-size="7.6325">E</text>
	</g>
</g>
<g id="Grass_Sand_1_-_most">
	<g>
		<circle fill="#A98C48" cx="125.59" cy="177.702" r="5.042"/>
		<path fill="#A98C48" d="M155.49,173.743l3-3.666c0,0-9.381-26.161-32.999-26c-24.027,0.163-34.667,26-34.667,26l3.667,3
			l-2.443,2.93l25.152,25.181c0,0-1.321,11.223,7.816,11.223s7.909-10.366,7.837-11.465l24.689-24.609L155.49,173.743z
			 M144.333,180.493l-16.9,16.901h-4.634l-16.969-16.971v-5.126l16.957-16.956h4.657l16.889,16.887V180.493z"/>
		<path fill="none" stroke="#FFFFFF" stroke-width="2" d="M15.649,93.573"/>
		<path fill="none" stroke="#FFFFFF" stroke-width="2" d="M125.245,204.252"/>
		<path fill="none" stroke="#FFFFFF" stroke-width="2" d="M231.985,94.251"/>
	</g>
</g>
<g id="Bases_and_chalk_lines-ALL">
	<g>
		<path fill="none" stroke="#FFFFFF" stroke-width="2" d="M15.649,93.573"/>
		<path fill="none" stroke="#FFFFFF" stroke-width="2" d="M125.245,204.252"/>
		<path fill="none" stroke="#FFFFFF" stroke-width="2" d="M231.985,94.251"/>
	</g>
	<rect id="mound" x="123.173" y="176.677" fill="#FFFFFF" stroke="#FFFFFF" width="3.98" height="1.551"/>
	
		<rect x="98.413" y="174.554" transform="matrix(0.7073 -0.7069 0.7069 0.7073 -95.2216 122.1922)" fill="#FFFFFF" stroke="#FFFFFF" width="3.045" height="3.043"/>
	
		<rect x="148.888" y="174.554" transform="matrix(0.7073 -0.7069 0.7069 0.7073 -80.4461 157.8751)" fill="#FFFFFF" stroke="#FFFFFF" width="3.045" height="3.043"/>
	
		<rect x="123.651" y="149.316" transform="matrix(0.7069 -0.7073 0.7073 0.7069 -70.0005 132.7347)" fill="#FFFFFF" stroke="#FFFFFF" width="3.045" height="3.044"/>
	<polygon id="homeplate" fill="#FFFFFF" stroke="#FFFFFF" points="126.7,201.884 125.162,203.405 123.654,201.884 123.654,200.361 
		126.7,200.361 	"/>
	<polyline fill="none" stroke="#FFFFFF" stroke-width="1.5" points="234.566,94.251 125.177,203.466 17.941,96.187 	"/>
</g>
</svg>
