<?xml version="1.0" encoding="utf-8"?>
<!-- Generator: Adobe Illustrator 14.0.0, SVG Export Plug-In . SVG Version: 6.00 Build 43363)  -->
<!DOCTYPE svg PUBLIC "-//W3C//DTD SVG 1.1//EN" "http://www.w3.org/Graphics/SVG/1.1/DTD/svg11.dtd">
<svg version="1.1" xmlns="http://www.w3.org/2000/svg" xmlns:xlink="http://www.w3.org/1999/xlink" x="0px" y="0px" width="250px"
	 height="250px" viewBox="0 0 250 250" enable-background="new 0 0 250 250" xml:space="preserve">
<g id="Champion_Stadium_-_2504">
	<polygon fill="#E5E5E5" points="212.376,231.977 220.763,220.419 219.965,217.848 	"/>
	<polygon fill="#DDDDDD" points="234.239,225.155 220.777,220.396 219.973,217.826 	"/>
	<polygon fill="#999999" points="234.21,225.191 222.599,216.88 220.032,217.693 	"/>
	<polygon fill="#727272" points="212.396,232.022 217.299,218.612 219.88,217.835 	"/>
	<polygon fill="#DDDDDD" points="205.856,210.222 217.414,218.608 219.987,217.812 	"/>
	<polygon fill="#D1D1D1" points="227.417,203.402 222.625,216.853 220.053,217.651 	"/>
	<polygon fill="#999999" points="205.84,210.252 219.26,215.13 220.041,217.706 	"/>
	<polygon fill="#727272" points="227.454,203.379 219.178,215.015 220,217.58 	"/>
	<g>
		<text transform="matrix(-0.8847 -0.4662 0.4662 -0.8847 214.915 234.1494)" font-family="'Times-Roman'" font-size="7.632">N</text>
	</g>
	<g>
		<text transform="matrix(-0.8847 -0.4662 0.4662 -0.8847 241.3428 226.7822)" font-family="'Times-Roman'" font-size="7.632">W</text>
	</g>
	<g>
		<text transform="matrix(-0.8847 -0.4662 0.4662 -0.8847 231.8223 200.2441)" font-family="'Times-Roman'" font-size="7.632">S</text>
	</g>
	<g>
		<text transform="matrix(-0.8847 -0.4662 0.4662 -0.8847 207.3081 208.8877)" font-family="'Times-Roman'" font-size="7.632">E</text>
	</g>
	<text transform="matrix(1 0 0 1 8.9355 87.2344)" fill="#FF0000" font-family="'Arial-BoldMT'" font-size="10.2268">340</text>
	<text transform="matrix(1 0 0 1 116.6763 27.2764)" fill="#FF0000" font-family="'Arial-BoldMT'" font-size="10.2268">400</text>
	<text transform="matrix(1 0 0 1 222.373 86.4004)" fill="#FF0000" font-family="'Arial-BoldMT'" font-size="10.2268">330</text>
	<path fill="#AA8D49" d="M21.905,105.521c0,0,29.328-74.104,103.667-74.104c27.563,0,70.333,21.753,70.333,21.753l31.772,54.686
		l-34.439,34.852l-30.974,51.88l-18.359,24.371c0,0-18.333,23.954-38.333-1.241s-55.91-75.92-55.91-75.92l-10.09,3.725L17.2,112.272
		L21.905,105.521z"/>
	<path fill="#0A823C" d="M110,210.527L30.333,104.998c0,0,25.667-65.846,94.667-65.846c34,0,66,22.604,66,22.604l21.94,40.657
		c0,0,3.607,4.837,0,10.752s-32.571,36.196-32.571,36.196s-24.534,46.874-39.744,61.166
		C140.626,210.527,128.653,235.236,110,210.527z"/>
	<path fill="none" stroke="#000000" d="M21.905,105.521c0,0,29.328-74.104,103.667-74.104c27.563,0,70.333,21.753,70.333,21.753
		l31.772,54.686l-34.439,34.852l-30.974,51.88l-18.359,24.371c0,0-18.333,23.954-38.333-1.241s-55.91-75.92-55.91-75.92
		l-10.09,3.725L17.2,112.272L21.905,105.521z"/>
</g>
<g id="Grass_Sand_1_-_most">
	<g>
		<circle fill="#A98C48" cx="125.09" cy="178.202" r="5.042"/>
		<path fill="#A98C48" d="M155.49,174.743l3-3.666c0,0-9.381-26.161-32.999-26c-24.027,0.163-34.667,26-34.667,26l3.667,3
			l-2.443,2.93l25.152,25.181c0,0-1.321,11.223,7.816,11.223s7.909-10.366,7.837-11.465l24.689-24.609L155.49,174.743z
			 M144.333,181.493l-16.9,16.901h-4.634l-16.969-16.971v-5.126l16.957-16.956h4.657l16.889,16.887V181.493z"/>
		<path fill="none" stroke="#FFFFFF" stroke-width="2" d="M15.649,94.573"/>
		<path fill="none" stroke="#FFFFFF" stroke-width="2" d="M125.245,205.252"/>
		<path fill="none" stroke="#FFFFFF" stroke-width="2" d="M231.985,95.251"/>
	</g>
</g>
<g id="Bases_and_chalk_lines-ALL">
	<g>
		<path fill="none" stroke="#FFFFFF" stroke-width="2" d="M13.649,92.073"/>
		<path fill="none" stroke="#FFFFFF" stroke-width="2" d="M125.245,205.252"/>
		<path fill="none" stroke="#FFFFFF" stroke-width="2" d="M231.985,95.251"/>
	</g>
	<rect id="mound_1_" x="123.173" y="177.677" fill="#FFFFFF" stroke="#FFFFFF" width="3.98" height="1.551"/>
	
		<rect x="98.413" y="175.554" transform="matrix(0.7073 -0.7069 0.7069 0.7073 -95.9286 122.4849)" fill="#FFFFFF" stroke="#FFFFFF" width="3.045" height="3.043"/>
	
		<rect x="148.888" y="175.554" transform="matrix(0.7073 -0.7069 0.7069 0.7073 -81.153 158.1678)" fill="#FFFFFF" stroke="#FFFFFF" width="3.045" height="3.043"/>
	
		<rect x="123.651" y="150.316" transform="matrix(0.7069 -0.7073 0.7073 0.7069 -70.7078 133.0278)" fill="#FFFFFF" stroke="#FFFFFF" width="3.045" height="3.044"/>
	<polygon id="homeplate_1_" fill="#FFFFFF" stroke="#FFFFFF" points="126.7,202.884 125.162,204.405 123.654,202.884 
		123.654,201.361 126.7,201.361 	"/>
	<polyline fill="none" stroke="#FFFFFF" stroke-width="1.5" points="234.566,95.251 125.177,204.466 15.941,94.687 	"/>
</g>
</svg>
