<?xml version="1.0" encoding="utf-8"?>
<!-- Generator: Adobe Illustrator 15.0.2, SVG Export Plug-In . SVG Version: 6.00 Build 0)  -->
<!DOCTYPE svg PUBLIC "-//W3C//DTD SVG 1.1//EN" "http://www.w3.org/Graphics/SVG/1.1/DTD/svg11.dtd">
<svg version="1.1" xmlns="http://www.w3.org/2000/svg" xmlns:xlink="http://www.w3.org/1999/xlink" x="0px" y="0px" width="250px"
	 height="250px" viewBox="0 0 250 250" enable-background="new 0 0 250 250" xml:space="preserve">
<g id="PHI_-_2681">
	<polygon fill="#AA8D49" stroke="#000000" points="226.191,107.877 222.876,104.896 222.947,104.821 153.995,33.84 107.668,31.023 
		88.904,50.765 79.461,51.215 23.822,108.327 47.115,132.081 47.035,138.639 67.469,170.489 115.975,217.455 135.65,217.438 
		184.222,168.246 203.27,137.254 202.947,131.12 	"/>
	<polygon fill="#0A823B" points="220.843,107.835 151.149,38.153 108.52,35.384 92.194,54.52 82.844,55.835 30.168,108.461 
		52.536,131.527 51.633,136.551 70.597,166.893 116.758,212.054 117.337,212.634 117.822,213.118 134.246,213.141 180.355,166.408 
		199.32,136.066 198.536,130.314 	"/>
	<path fill="#57735E" d="M93.544,172.685l0.199-0.3l-3.1-2.5L93.544,172.685z"/>
	<text transform="matrix(1 0 0 1 53.1685 55.9463)" fill="#FF0000" font-family="'Arial-BoldMT'" font-size="11">369</text>
	<text transform="matrix(1 0 0 1 122.1724 27.4131)" fill="#FF0000" font-family="'Arial-BoldMT'" font-size="11">401</text>
	<text transform="matrix(1 0 0 1 157.9956 31.6191)" fill="#FF0000" font-family="'Arial-BoldMT'" font-size="11">398</text>
	<text transform="matrix(1 0 0 1 216.2241 91.1592)" fill="#FF0000" font-family="'Arial-BoldMT'" font-size="11">330</text>
	<text transform="matrix(1 0 0 1 15.4795 90.3477)" fill="#FF0000" font-family="'Arial-BoldMT'" font-size="11">329</text>
	<polygon fill="#E5E5E5" points="225.897,184.079 224.687,198.308 226.699,200.097 	"/>
	<polygon fill="#DDDDDD" points="210.703,201.215 224.688,198.335 226.704,200.12 	"/>
	<polygon fill="#999999" points="210.708,201.169 224.944,202.286 226.722,200.264 	"/>
	<polygon fill="#727272" points="225.856,184.051 228.586,198.066 226.779,200.063 	"/>
	<polygon fill="#DDDDDD" points="242.718,199.337 228.491,198.127 226.699,200.14 	"/>
	<polygon fill="#D1D1D1" points="227.783,216.315 224.936,202.323 226.726,200.312 	"/>
	<polygon fill="#999999" points="242.717,199.303 228.708,202.06 226.707,200.257 	"/>
	<polygon fill="#727272" points="227.762,216.354 228.835,202.116 226.808,200.344 	"/>
	<g>
		<text transform="matrix(0.9983 -0.058 0.058 0.9983 223.2881 183.7158)" font-family="'Times-Roman'" font-size="7.6325">N</text>
	</g>
	<g>
		<text transform="matrix(0.9983 -0.058 0.058 0.9983 204.4702 203.6797)" font-family="'Times-Roman'" font-size="7.6325">W</text>
	</g>
	<g>
		<text transform="matrix(0.9983 -0.058 0.058 0.9983 226.3306 221.4834)" font-family="'Times-Roman'" font-size="7.6325">S</text>
	</g>
	<g>
		<text transform="matrix(0.9983 -0.058 0.058 0.9983 242.8545 201.417)" font-family="'Times-Roman'" font-size="7.6325">E</text>
	</g>
	<text transform="matrix(1 0 0 1 80.311 38.501)" fill="#FF0000" font-family="'Arial-BoldMT'" font-size="11">381</text>
	<text transform="matrix(1 0 0 1 179.1597 54.4561)" fill="#FF0000" font-family="'Arial-BoldMT'" font-size="11">369</text>
</g>
<g id="Grass_Sand_1_-_most">
	<g>
		<circle fill="#A98C48" cx="125.59" cy="177.702" r="5.042"/>
		<path fill="#A98C48" d="M155.49,173.743l3-3.666c0,0-9.381-26.161-32.999-26c-24.027,0.163-34.667,26-34.667,26l3.667,3
			l-2.443,2.93l25.152,25.181c0,0-1.321,11.223,7.816,11.223s7.909-10.366,7.837-11.465l24.689-24.609L155.49,173.743z
			 M144.333,180.493l-16.9,16.901h-4.634l-16.969-16.971v-5.126l16.957-16.956h4.657l16.889,16.887V180.493z"/>
		<path fill="none" stroke="#FFFFFF" stroke-width="2" d="M15.649,93.573"/>
		<path fill="none" stroke="#FFFFFF" stroke-width="2" d="M125.245,204.252"/>
		<path fill="none" stroke="#FFFFFF" stroke-width="2" d="M231.985,94.251"/>
	</g>
</g>
<g id="Bases_and_chalk_lines-ALL">
	<g>
		<path fill="none" stroke="#FFFFFF" stroke-width="2" d="M15.649,93.573"/>
		<path fill="none" stroke="#FFFFFF" stroke-width="2" d="M125.245,204.252"/>
		<path fill="none" stroke="#FFFFFF" stroke-width="2" d="M231.985,94.251"/>
	</g>
	<rect id="mound" x="123.173" y="176.677" fill="#FFFFFF" stroke="#FFFFFF" width="3.98" height="1.551"/>
	
		<rect x="98.413" y="174.554" transform="matrix(0.7073 -0.7069 0.7069 0.7073 -95.2216 122.1922)" fill="#FFFFFF" stroke="#FFFFFF" width="3.045" height="3.043"/>
	
		<rect x="148.888" y="174.554" transform="matrix(0.7073 -0.7069 0.7069 0.7073 -80.4461 157.8751)" fill="#FFFFFF" stroke="#FFFFFF" width="3.045" height="3.043"/>
	
		<rect x="123.651" y="149.316" transform="matrix(0.7069 -0.7073 0.7073 0.7069 -70.0005 132.7347)" fill="#FFFFFF" stroke="#FFFFFF" width="3.045" height="3.044"/>
	<polygon id="homeplate" fill="#FFFFFF" stroke="#FFFFFF" points="126.7,201.884 125.162,203.405 123.654,201.884 123.654,200.361 
		126.7,200.361 	"/>
	<polyline fill="none" stroke="#FFFFFF" stroke-width="1.5" points="234.566,94.251 125.177,203.466 17.941,96.187 	"/>
</g>
</svg>
