<?xml version="1.0" encoding="utf-8"?>
<!-- Generator: Adobe Illustrator 15.1.0, SVG Export Plug-In  -->
<!DOCTYPE svg PUBLIC "-//W3C//DTD SVG 1.1//EN" "http://www.w3.org/Graphics/SVG/1.1/DTD/svg11.dtd" [
	<!ENTITY ns_flows "http://ns.adobe.com/Flows/1.0/">
]>
<svg version="1.1"
	 xmlns="http://www.w3.org/2000/svg" xmlns:xlink="http://www.w3.org/1999/xlink" xmlns:a="http://ns.adobe.com/AdobeSVGViewerExtensions/3.0/"
	 x="0px" y="0px" width="250px" height="250px" viewBox="-4.316 -16.809 250 250"
	 overflow="visible" enable-background="new -4.316 -16.809 250 250" xml:space="preserve">
<defs>
</defs>
<text transform="matrix(1 0 0 1 0 74.6631)" fill="#FF0000" font-family="'Arial-BoldMT'" font-size="11">336</text>
<text transform="matrix(1 0 0 1 46.248 28.3662)" fill="#FF0000" font-family="'Arial-BoldMT'" font-size="11">377</text>
<text transform="matrix(1 0 0 1 114.2817 9.4375)" fill="#FF0000" font-family="'Arial-BoldMT'" font-size="11">400</text>
<text transform="matrix(1 0 0 1 180.7495 28.3662)" fill="#FF0000" font-family="'Arial-BoldMT'" font-size="11">375</text>
<text transform="matrix(1 0 0 1 223.5493 74.6631)" fill="#FF0000" font-family="'Arial-BoldMT'" font-size="11">335</text>
<polygon fill="#E5E5E5" points="133.602,133.693 146.653,127.899 147.252,125.274 "/>
<polygon fill="#DDDDDD" points="155.938,138.754 146.676,127.886 147.27,125.259 "/>
<polygon fill="#999999" points="155.895,138.771 150.016,125.758 147.387,125.174 "/>
<polygon fill="#727272" points="133.596,133.743 144.563,124.6 147.184,125.221 "/>
<g>
	<text transform="matrix(0.5665 0.824 -0.824 0.5665 153.29 139.8057)" font-family="'Times-Roman'" font-size="7.6321">W</text>
</g>
<path fill="#AA8D49" stroke="#000000" d="M220.167,89.878V67.376l-41.333-35.331L140.39,13.5h-36.187l-39.27,16.879L20.756,68.987
	l1.25,20.768l22.768,23.061l17.072,42.855l30.662,31.583c8.872,12.194,16.206,20.878,28.707,20.878
	c13.951,0,21.062-10.054,25.461-15.523c5.915-6.646,28.49-33.342,28.49-33.342l24.481-48.908L220.167,89.878z"/>
<path fill="#0A823C" d="M214.103,85.712V68.333L175.5,36.253L140.39,18.712l-36.187,1.33L68.638,36.02L26.145,70.317l1.344,16.062
	l21.344,20.666l18.14,46.148l27.205,29.07c8.388,11.53,15.322,19.74,27.143,19.74c7.413,0,12.989-3.082,17.146-8.254
	c5.594-6.283,30.367-34.483,30.367-34.483l26.916-54.908L214.103,85.712z"/>
<polygon fill="#E5E5E5" points="210.925,173.603 220.037,184.597 222.726,184.463 "/>
<polygon fill="#DDDDDD" points="212.102,196.474 220.057,184.615 222.746,184.476 "/>
<polygon fill="#999999" points="212.075,196.438 223.009,187.255 222.859,184.566 "/>
<polygon fill="#727272" points="210.875,173.61 222.649,181.691 222.76,184.384 "/>
<polygon fill="#DDDDDD" points="233.617,172.689 222.625,181.802 222.756,184.493 "/>
<polygon fill="#D1D1D1" points="234.869,195.269 223.029,187.286 222.896,184.597 "/>
<polygon fill="#999999" points="233.593,172.667 225.535,184.455 222.843,184.571 "/>
<polygon fill="#727272" points="234.882,195.312 225.666,184.405 222.978,184.562 "/>
<g>
	<text transform="matrix(0.6713 -0.7412 0.7412 0.6713 209.377 176.041)" font-family="'TimesNewRomanPSMT'" font-size="7.6328">N</text>
</g>
<g>
	<text transform="matrix(0.6713 -0.7412 0.7412 0.6713 209.9497 203.4697)" font-family="'TimesNewRomanPSMT'" font-size="7.6328">W</text>
</g>
<g>
	<text transform="matrix(0.6713 -0.7412 0.7412 0.6713 238.0244 200.8477)" font-family="'TimesNewRomanPSMT'" font-size="7.6328">S</text>
</g>
<g>
	<text transform="matrix(0.6713 -0.7412 0.7412 0.6713 235.7402 174.9541)" font-family="'TimesNewRomanPSMT'" font-size="7.6328">E</text>
</g>
<circle fill="#A98C48" cx="121.273" cy="160.894" r="5.042"/>
<path fill="#A98C48" d="M151.173,156.935l3-3.666c0,0-9.381-26.161-32.999-26c-24.027,0.163-34.667,26-34.667,26l3.667,3
	l-2.443,2.93l25.152,25.181c0,0-1.321,11.223,7.816,11.223s7.909-10.366,7.837-11.465l24.689-24.609L151.173,156.935z
	 M140.017,163.685l-16.9,16.901h-4.634l-16.969-16.971v-5.126l16.957-16.956h4.657l16.889,16.887V163.685z"/>
<rect x="118.857" y="159.868" fill="#FFFFFF" stroke="#FFFFFF" width="3.98" height="1.551"/>
<rect x="94.097" y="157.745" transform="matrix(0.7073 -0.7069 0.7069 0.7073 -84.6024 114.2203)" fill="#FFFFFF" stroke="#FFFFFF" width="3.045" height="3.043"/>
<rect x="144.571" y="157.745" transform="matrix(0.7073 -0.7069 0.7069 0.7073 -69.8268 149.9032)" fill="#FFFFFF" stroke="#FFFFFF" width="3.045" height="3.043"/>
<rect x="119.335" y="132.508" transform="matrix(0.7069 -0.7073 0.7073 0.7069 -59.3773 124.7561)" fill="#FFFFFF" stroke="#FFFFFF" width="3.045" height="3.044"/>
<polygon fill="#FFFFFF" stroke="#FFFFFF" points="122.383,185.075 120.845,186.597 119.337,185.075 119.337,183.553 
	122.383,183.553 "/>
<polyline fill="none" stroke="#FFFFFF" stroke-width="1.5" points="230.25,77.442 120.861,186.657 13.625,79.378 "/>
</svg>
