<?xml version="1.0" encoding="utf-8"?>
<!-- Generator: Adobe Illustrator 15.0.2, SVG Export Plug-In . SVG Version: 6.00 Build 0)  -->
<!DOCTYPE svg PUBLIC "-//W3C//DTD SVG 1.1//EN" "http://www.w3.org/Graphics/SVG/1.1/DTD/svg11.dtd">
<svg version="1.1" xmlns="http://www.w3.org/2000/svg" xmlns:xlink="http://www.w3.org/1999/xlink" x="0px" y="0px" width="250px"
	 height="250px" viewBox="0 0 250 250" enable-background="new 0 0 250 250" xml:space="preserve">
<g id="PIT_-_31">
	<path fill="#AA8D49" stroke="#000000" d="M27.569,105.646l2.333-36.001l58.737-42.042l5.667,6.667l31.896-2.868l35.377,6.396
		l24.81,16.279l38.474,54.109l-20.627,20.793l-9.667,28.667c0,0-42.768,50.572-52.667,61.333c-7.666,8.333-14.332,7-17.332,7
		c-9.668,0-17-8.999-22-15.333l-54.667-71l1-12L27.569,105.646"/>
	<path fill="#0A823C" d="M37.794,72.308l31.191-24.121l51.562-10.033l38.302,6.982l22.512,15.063l34.42,49.374l-15.546,15.906
		l-11.127,29.693c0,0-39.299,46.473-48.396,56.36c-7.044,7.657-12.251,7.351-15.008,7.351c-8.883,0-16.541-9.188-21.135-15.008
		l-50.235-65.243l1.419-11.027L35.15,106.552L37.794,72.308z"/>
	<text transform="matrix(1 0 0 1 5.8159 113.9541)" fill="#FF0000" font-family="'Arial-BoldMT'" font-size="11">325</text>
	<text transform="matrix(1 0 0 1 220.873 90.4492)" fill="#FF0000" font-family="'Arial-BoldMT'" font-size="11">320</text>
	<text transform="matrix(1 0 0 1 193.1948 31.3086)" fill="#FF0000" font-family="'Arial-BoldMT'" font-size="11">375</text>
	<text transform="matrix(1 0 0 1 120.5483 26.8311)" fill="#FF0000" font-family="'Arial-BoldMT'" font-size="11">399</text>
	<text transform="matrix(1 0 0 1 68.9858 21.5908)" fill="#FF0000" font-family="'Arial-BoldMT'" font-size="11">410</text>
	<text transform="matrix(1 0 0 1 24.3228 41.6631)" fill="#FF0000" font-family="'Arial-BoldMT'" font-size="11">389</text>
	<polygon fill="#E5E5E5" points="214.488,210.985 226.154,202.751 226.229,200.06 	"/>
	<polygon fill="#DDDDDD" points="237.382,211.581 226.175,202.733 226.244,200.041 	"/>
	<polygon fill="#999999" points="237.343,211.605 229.035,199.993 226.341,199.935 	"/>
	<polygon fill="#727272" points="214.492,211.035 223.46,199.923 226.152,200.02 	"/>
	<polygon fill="#DDDDDD" points="215.333,188.29 223.568,199.956 226.261,200.031 	"/>
	<polygon fill="#D1D1D1" points="237.941,188.789 229.067,199.976 226.375,199.9 	"/>
	<polygon fill="#999999" points="215.308,188.313 226.438,197.259 226.345,199.95 	"/>
	<polygon fill="#727272" points="237.985,188.779 226.398,197.124 226.347,199.817 	"/>
	<g>
		<text transform="matrix(0.707 0.7072 -0.7072 0.707 208.7969 212.7334)" font-family="'TimesNewRomanPSMT'" font-size="7.6324">N</text>
	</g>
	<g>
		<text transform="matrix(0.7106 0.7036 -0.7036 0.7106 235.001 213.0781)" font-family="'TimesNewRomanPSMT'" font-size="7.6325">W</text>
	</g>
	<g>
		<text transform="matrix(0.7098 0.7044 -0.7044 0.7098 236.623 187.0078)" font-family="'TimesNewRomanPSMT'" font-size="7.6324">S</text>
	</g>
	<g>
		<text transform="matrix(0.6907 0.7232 -0.7232 0.6907 210.3257 186.9004)" font-family="'TimesNewRomanPSMT'" font-size="7.6328">E</text>
	</g>
</g>
<g id="Grass_Sand_3__x28_ARI_x2C__PIT_x29_">
	<g>
		<path fill="#AA8D49" d="M100.326,173.562l2.184,2.184L100.326,173.562z M104.28,177.104v-5.57l18.425-18.424h5.062l18.353,18.35
			v5.72l-18.366,18.366h-0.227v-14.365c1.836-0.863,3.12-2.7,3.12-4.863c0-2.986-2.422-5.41-5.408-5.41
			c-2.988,0-5.41,2.424-5.41,5.41c0,2.193,1.311,4.072,3.188,4.922v14.307h-0.296L104.28,177.104z M147.316,204.522l-15.042-2.548
			l-0.009-3.019l33.25-34.5c-5.545-16.5-21.882-29.417-40.25-29.417c-19.104,0-34.582,12.386-39.5,29.917l32.26,33.723v3.275
			l-13.488,3.597l7.495,8.565l7.483-6.565c1.617,0.881,4.152,2.47,6.125,2.47c2.016,0,4.461-1.606,6.102-2.521l8.344,5.974
			L147.316,204.522z"/>
	</g>
</g>
<g id="Bases_and_chalk_lines-ALL">
	<g>
		<path fill="none" stroke="#FFFFFF" stroke-width="2" d="M15.649,93.573"/>
		<path fill="none" stroke="#FFFFFF" stroke-width="2" d="M125.245,204.252"/>
		<path fill="none" stroke="#FFFFFF" stroke-width="2" d="M231.985,94.251"/>
	</g>
	<rect id="mound" x="123.173" y="176.677" fill="#FFFFFF" stroke="#FFFFFF" width="3.98" height="1.551"/>
	
		<rect x="98.413" y="174.554" transform="matrix(0.7073 -0.7069 0.7069 0.7073 -95.2216 122.1922)" fill="#FFFFFF" stroke="#FFFFFF" width="3.045" height="3.043"/>
	
		<rect x="148.888" y="174.554" transform="matrix(0.7073 -0.7069 0.7069 0.7073 -80.4461 157.8751)" fill="#FFFFFF" stroke="#FFFFFF" width="3.045" height="3.043"/>
	
		<rect x="123.651" y="149.316" transform="matrix(0.7069 -0.7073 0.7073 0.7069 -70.0005 132.7347)" fill="#FFFFFF" stroke="#FFFFFF" width="3.045" height="3.044"/>
	<polygon id="homeplate" fill="#FFFFFF" stroke="#FFFFFF" points="126.7,201.884 125.162,203.405 123.654,201.884 123.654,200.361 
		126.7,200.361 	"/>
	<polyline fill="none" stroke="#FFFFFF" stroke-width="1.5" points="234.566,94.251 125.177,203.466 17.941,96.187 	"/>
</g>
</svg>
