<?xml version="1.0" encoding="utf-8"?>
<!-- Generator: Adobe Illustrator 15.0.2, SVG Export Plug-In . SVG Version: 6.00 Build 0)  -->
<!DOCTYPE svg PUBLIC "-//W3C//DTD SVG 1.1//EN" "http://www.w3.org/Graphics/SVG/1.1/DTD/svg11.dtd">
<svg version="1.1" xmlns="http://www.w3.org/2000/svg" xmlns:xlink="http://www.w3.org/1999/xlink" x="0px" y="0px" width="250px"
	 height="250px" viewBox="0 0 250 250" enable-background="new 0 0 250 250" xml:space="preserve">
<g id="NYY_-_3313">
	<path fill="#AA8D49" stroke="#000000" d="M125.778,230.52c-13.962,0-23.035-11.363-23.035-11.363l-34.482-43.77L49.09,132.52
		l-19.274-18c-7.331-21.263,1.825-36.075,1.825-36.075l31.874-34.43c0,0,36.846-16.157,62.074-16.161
		c31.227-0.005,53.894,17.94,53.894,17.94s38.179,49.822,41.187,54.011s0,12.36,0,12.36l-14.361,16.48l-23.968,43.93l-35.855,46.581
		C146.485,219.156,138.816,230.52,125.778,230.52z"/>
	<path fill="#0A823C" d="M125.589,222.865c-11.042-0.091-17.069-8.604-17.069-8.604c-3.843-5.579-34.049-41.801-34.049-41.801
		l-22.337-45.058c0,0-3.452-3.711-12.218-12.797s-3.503-32.873-3.503-32.873L66.26,49.854c0,0,29.572-17.18,58.396-16.553
		c30.742,0.669,48.826,15.886,48.826,15.886l44.324,55.524c0,0-18.587,18.855-20.456,21.657
		c-0.761,1.142-23.868,43.402-23.868,43.402s-28.67,41.244-32.146,44.95C141.337,214.721,136.816,222.958,125.589,222.865z"/>
	<text transform="matrix(1 0 0 1 4.3765 89.5264)" fill="#FF0000" font-family="'Arial-BoldMT'" font-size="12">318</text>
	<text transform="matrix(1 0 0 1 217.8071 93.5732)" fill="#FF0000" font-family="'Arial-BoldMT'" font-size="12">314</text>
	<text transform="matrix(1 0 0 1 187.3403 48.6826)" fill="#FF0000" font-family="'Arial-BoldMT'" font-size="12">385</text>
	<text transform="matrix(1 0 0 1 113.4136 24.0869)" fill="#FF0000" font-family="'Arial-BoldMT'" font-size="12">408</text>
	<text transform="matrix(1 0 0 1 42.123 36.1895)" fill="#FF0000" font-family="'Arial-BoldMT'" font-size="12">399</text>
	<polygon fill="#E5E5E5" points="209.871,198.017 223.699,201.574 225.798,199.889 	"/>
	<polygon fill="#DDDDDD" points="224.242,215.849 223.726,201.578 225.822,199.888 	"/>
	<polygon fill="#999999" points="224.198,215.835 227.666,201.983 225.966,199.894 	"/>
	<polygon fill="#727272" points="209.835,198.052 224.11,197.69 225.779,199.804 	"/>
	<polygon fill="#DDDDDD" points="227.712,183.965 224.154,197.794 225.841,199.896 	"/>
	<polygon fill="#D1D1D1" points="241.971,201.516 227.701,201.997 226.015,199.897 	"/>
	<polygon fill="#999999" points="227.679,183.961 228.068,198.234 225.958,199.907 	"/>
	<polygon fill="#727272" points="242.007,201.543 228.145,198.117 226.06,199.822 	"/>
	<g>
		<text transform="matrix(0.1088 -0.9941 0.9941 0.1088 209.5176 200.7715)" font-family="'TimesNewRomanPSMT'" font-size="7.6328">N</text>
	</g>
	<g>
		<text transform="matrix(0.1088 -0.9941 0.9941 0.1088 226.0732 222.6465)" font-family="'TimesNewRomanPSMT'" font-size="7.6328">W</text>
	</g>
	<g>
		<text transform="matrix(0.1088 -0.9941 0.9941 0.1088 247.2656 204.0527)" font-family="'TimesNewRomanPSMT'" font-size="7.6328">S</text>
	</g>
	<g>
		<text transform="matrix(0.1088 -0.9941 0.9941 0.1088 230.2266 184.4219)" font-family="'TimesNewRomanPSMT'" font-size="7.6328">E</text>
	</g>
</g>
<g id="Grass_Sand_1_-_most">
	<g>
		<circle fill="#A98C48" cx="125.59" cy="177.702" r="5.042"/>
		<path fill="#A98C48" d="M155.49,173.743l3-3.666c0,0-9.381-26.161-32.999-26c-24.027,0.163-34.667,26-34.667,26l3.667,3
			l-2.443,2.93l25.152,25.181c0,0-1.321,11.223,7.816,11.223s7.909-10.366,7.837-11.465l24.689-24.609L155.49,173.743z
			 M144.333,180.493l-16.9,16.901h-4.634l-16.969-16.971v-5.126l16.957-16.956h4.657l16.889,16.887V180.493z"/>
		<path fill="none" stroke="#FFFFFF" stroke-width="2" d="M15.649,93.573"/>
		<path fill="none" stroke="#FFFFFF" stroke-width="2" d="M125.245,204.252"/>
		<path fill="none" stroke="#FFFFFF" stroke-width="2" d="M231.985,94.251"/>
	</g>
</g>
<g id="Bases_and_chalk_lines-ALL">
	<g>
		<path fill="none" stroke="#FFFFFF" stroke-width="2" d="M15.649,93.573"/>
		<path fill="none" stroke="#FFFFFF" stroke-width="2" d="M125.245,204.252"/>
		<path fill="none" stroke="#FFFFFF" stroke-width="2" d="M231.985,94.251"/>
	</g>
	<rect id="mound" x="123.173" y="176.677" fill="#FFFFFF" stroke="#FFFFFF" width="3.98" height="1.551"/>
	
		<rect x="98.413" y="174.554" transform="matrix(0.7073 -0.7069 0.7069 0.7073 -95.2216 122.1922)" fill="#FFFFFF" stroke="#FFFFFF" width="3.045" height="3.043"/>
	
		<rect x="148.888" y="174.554" transform="matrix(0.7073 -0.7069 0.7069 0.7073 -80.4461 157.8751)" fill="#FFFFFF" stroke="#FFFFFF" width="3.045" height="3.043"/>
	
		<rect x="123.651" y="149.316" transform="matrix(0.7069 -0.7073 0.7073 0.7069 -70.0005 132.7347)" fill="#FFFFFF" stroke="#FFFFFF" width="3.045" height="3.044"/>
	<polygon id="homeplate" fill="#FFFFFF" stroke="#FFFFFF" points="126.7,201.884 125.162,203.405 123.654,201.884 123.654,200.361 
		126.7,200.361 	"/>
	<polyline fill="none" stroke="#FFFFFF" stroke-width="1.5" points="234.566,94.251 125.177,203.466 17.941,96.187 	"/>
</g>
</svg>
