<?xml version="1.0" encoding="utf-8"?>
<!-- Generator: Adobe Illustrator 15.0.2, SVG Export Plug-In . SVG Version: 6.00 Build 0)  -->
<!DOCTYPE svg PUBLIC "-//W3C//DTD SVG 1.1//EN" "http://www.w3.org/Graphics/SVG/1.1/DTD/svg11.dtd">
<svg version="1.1" xmlns="http://www.w3.org/2000/svg" xmlns:xlink="http://www.w3.org/1999/xlink" x="0px" y="0px" width="250px"
	 height="250px" viewBox="0 0 250 250" enable-background="new 0 0 250 250" xml:space="preserve">
<g id="CWS_-_4">
	<path fill="#AA8D49" stroke="#000000" d="M22.154,107.436l43.561-55.722c0,0,16.767-20.156,59.451-20.156
		c40.982,0,60.873,21.623,60.873,21.623l40.586,53.737l-10.148,10.719l-39.661,49.309l-5.075,13.187l-23.483,32.278
		c0,0-10.836,11.692-22.47,12.025s-21.3-11.776-21.3-11.776L72.48,168.854l-37.652-50.179L22.154,107.436z"/>
	<text transform="matrix(1 0 0 1 9.1025 94.251)" fill="#FF0000" font-family="'Arial-BoldMT'" font-size="11">330</text>
	<text transform="matrix(1 0 0 1 44.6104 52.542)" fill="#FF0000" font-family="'Arial-BoldMT'" font-size="11">377</text>
	<text transform="matrix(1 0 0 1 116.936 28.0361)" fill="#FF0000" font-family="'Arial-BoldMT'" font-size="11">400</text>
	<text transform="matrix(1 0 0 1 190.9409 54.5244)" fill="#FF0000" font-family="'Arial-BoldMT'" font-size="11">372</text>
	<text transform="matrix(1 0 0 1 218.6313 93.251)" fill="#FF0000" font-family="'Arial-BoldMT'" font-size="11">335</text>
	<g>
		<polygon fill="#E5E5E5" points="237.122,210.868 229.297,198.923 226.611,198.755 		"/>
		<polygon fill="#DDDDDD" points="238.512,188.008 229.281,198.902 226.592,198.74 		"/>
		<polygon fill="#999999" points="238.536,188.048 226.641,195.949 226.49,198.638 		"/>
		<polygon fill="#727272" points="237.172,210.865 226.378,201.518 226.569,198.83 		"/>
		<polygon fill="#DDDDDD" points="214.471,209.234 226.415,201.41 226.584,198.721 		"/>
		<polygon fill="#D1D1D1" points="215.753,186.659 226.625,195.916 226.458,198.603 		"/>
		<polygon fill="#999999" points="214.493,209.261 223.819,198.449 226.506,198.634 		"/>
		<polygon fill="#727272" points="215.747,186.614 223.684,198.484 226.373,198.628 		"/>
		<text transform="matrix(0.7466 -0.6653 0.6653 0.7466 215.0396 187.9697)" font-family="'Times-Roman'" font-size="7.633">E</text>
		<text transform="matrix(0.7627 -0.6468 0.6468 0.7627 212.313 214.6396)" font-family="'Times-Roman'" font-size="7.6322">N</text>
		<text transform="matrix(0.7388 -0.6739 0.6739 0.7388 238.9595 217.1523)" font-family="'Times-Roman'" font-size="7.6324">W</text>
		<text transform="matrix(0.7472 -0.6646 0.6646 0.7472 240.1382 190.0752)" font-family="'Times-Roman'" font-size="7.6322">S</text>
	</g>
	<path fill="#0A823C" d="M215.975,108.047c0,0,0.889-5.142-3.051-9.904L179.38,56.521c0,0-13.231-18.367-53.791-18.367
		c-38.545,0-56.543,20.526-56.543,20.526l-32.948,41.405c0,0-2.185,3.617,0.803,8.823l5.621,8.479l53.974,75.13l12.024,15.152
		c0,0,6.885,11.897,17.069,11.897s18.56-10.333,18.56-10.333l17.544-26.491l9.13-19.89L215.975,108.047z"/>
</g>
<g id="Grass_Sand_1_-_most">
	<g>
		<circle fill="#A98C48" cx="125.59" cy="177.702" r="5.042"/>
		<path fill="#A98C48" d="M155.49,173.743l3-3.666c0,0-9.381-26.161-32.999-26c-24.027,0.163-34.667,26-34.667,26l3.667,3
			l-2.443,2.93l25.152,25.181c0,0-1.321,11.223,7.816,11.223s7.909-10.366,7.837-11.465l24.689-24.609L155.49,173.743z
			 M144.333,180.493l-16.9,16.901h-4.634l-16.969-16.971v-5.126l16.957-16.956h4.657l16.889,16.887V180.493z"/>
		<path fill="none" stroke="#FFFFFF" stroke-width="2" d="M15.649,93.573"/>
		<path fill="none" stroke="#FFFFFF" stroke-width="2" d="M125.245,204.252"/>
		<path fill="none" stroke="#FFFFFF" stroke-width="2" d="M231.985,94.251"/>
	</g>
</g>
<g id="Bases_and_chalk_lines-ALL">
	<g>
		<path fill="none" stroke="#FFFFFF" stroke-width="2" d="M15.649,93.573"/>
		<path fill="none" stroke="#FFFFFF" stroke-width="2" d="M125.245,204.252"/>
		<path fill="none" stroke="#FFFFFF" stroke-width="2" d="M231.985,94.251"/>
	</g>
	<rect id="mound" x="123.173" y="176.677" fill="#FFFFFF" stroke="#FFFFFF" width="3.98" height="1.551"/>
	
		<rect x="98.413" y="174.554" transform="matrix(0.7073 -0.7069 0.7069 0.7073 -95.2216 122.1922)" fill="#FFFFFF" stroke="#FFFFFF" width="3.045" height="3.043"/>
	
		<rect x="148.888" y="174.554" transform="matrix(0.7073 -0.7069 0.7069 0.7073 -80.4461 157.8751)" fill="#FFFFFF" stroke="#FFFFFF" width="3.045" height="3.043"/>
	
		<rect x="123.651" y="149.316" transform="matrix(0.7069 -0.7073 0.7073 0.7069 -70.0005 132.7347)" fill="#FFFFFF" stroke="#FFFFFF" width="3.045" height="3.044"/>
	<polygon id="homeplate" fill="#FFFFFF" stroke="#FFFFFF" points="126.7,201.884 125.162,203.405 123.654,201.884 123.654,200.361 
		126.7,200.361 	"/>
	<polyline fill="none" stroke="#FFFFFF" stroke-width="1.5" points="234.566,94.251 125.177,203.466 17.941,96.187 	"/>
</g>
</svg>
