<?xml version="1.0" encoding="utf-8"?>
<!-- Generator: Adobe Illustrator 15.0.2, SVG Export Plug-In . SVG Version: 6.00 Build 0)  -->
<!DOCTYPE svg PUBLIC "-//W3C//DTD SVG 1.1//EN" "http://www.w3.org/Graphics/SVG/1.1/DTD/svg11.dtd">
<svg version="1.1" xmlns="http://www.w3.org/2000/svg" xmlns:xlink="http://www.w3.org/1999/xlink" x="0px" y="0px" width="250px"
	 height="250px" viewBox="0 0 250 250" enable-background="new 0 0 250 250" xml:space="preserve">
<g id="CLE_-_5">
	<path fill="#AA8D49" stroke="#000000" d="M210.31,122.28c0,0-62.592,92.628-65.404,93.557l-0.312,0.488c0,0-6,10-19,10
		s-19.334-10-19.334-10l-52.443-79.138l-31.39-31.945l13.667-27.667l80.526-51.299l77.585,26.552l31.869,52.366L210.31,122.28z"/>
	<path fill="#0A823C" d="M31.426,103.998l12.911-24.516l74.936-45.688l68.291,23.335l30.766,49.311l-11.369,12.235
		c0,0-60.097,89.959-62.812,90.855l-0.301,0.472c0,0-5.789,9.65-18.337,9.65c-12.546,0-16.573-9.164-16.573-9.164l-52.371-79.86
		L31.426,103.998z"/>
	<text transform="matrix(1 0 0 1 8.1763 93.0166)" fill="#FF0000" font-family="'Arial-BoldMT'" font-size="11">325</text>
	<text transform="matrix(1 0 0 1 102.7427 23.3604)" fill="#FF0000" font-family="'Arial-BoldMT'" font-size="11">410</text>
	<text transform="matrix(1 0 0 1 130.6313 29.125)" fill="#FF0000" font-family="'Arial-BoldMT'" font-size="11">405</text>
	<text transform="matrix(1 0 0 1 60.7944 49.0752)" fill="#FF0000" font-family="'Arial-BoldMT'" font-size="11">370</text>
	<text transform="matrix(1 0 0 1 183.5562 46.668)" fill="#FF0000" font-family="'Arial-BoldMT'" font-size="11">375</text>
	<text transform="matrix(1 0 0 1 224.6294 93.0156)" fill="#FF0000" font-family="'Arial-BoldMT'" font-size="11">325</text>
	<polygon fill="#E5E5E5" points="226.367,183.227 224.418,197.373 226.334,199.264 	"/>
	<polygon fill="#DDDDDD" points="210.301,199.549 224.417,197.4 226.338,199.287 	"/>
	<polygon fill="#999999" points="210.309,199.503 224.467,201.359 226.348,199.433 	"/>
	<polygon fill="#727272" points="226.327,183.196 228.325,197.335 226.417,199.235 	"/>
	<polygon fill="#DDDDDD" points="242.372,199.339 228.227,197.391 226.333,199.307 	"/>
	<polygon fill="#D1D1D1" points="226.574,215.517 224.458,201.396 226.35,199.479 	"/>
	<polygon fill="#999999" points="242.373,199.304 228.238,201.329 226.334,199.425 	"/>
	<polygon fill="#727272" points="226.549,215.555 228.363,201.392 226.43,199.517 	"/>
	<g>
		<text transform="matrix(1 -0.006 0.006 1 223.5757 183.1973)" font-family="'TimesNewRomanPSMT'" font-size="7.6327">N</text>
	</g>
	<g>
		<text transform="matrix(1 -0.006 0.006 1 203.7422 202.1484)" font-family="'TimesNewRomanPSMT'" font-size="7.6327">W</text>
	</g>
	<g>
		<text transform="matrix(1 -0.006 0.006 1 224.646 221.0684)" font-family="'TimesNewRomanPSMT'" font-size="7.6327">S</text>
	</g>
	<g>
		<text transform="matrix(1 -0.006 0.006 1 242.1919 201.8887)" font-family="'TimesNewRomanPSMT'" font-size="7.6327">E</text>
	</g>
</g>
<g id="Grass_Sand_5__x28_CLE_x29_">
	<g>
		<circle fill="#A98C48" cx="125.59" cy="177.702" r="5.042"/>
		<path fill="#A98C48" d="M155.49,173.743l3-3.666c0,0-9.381-26.161-32.999-26c-24.027,0.163-34.667,26-34.667,26l3.667,3l-1,4.375
			l7.401,7.409l2.489,0.244l17.167,16.224c0,0,11.33,0.166,11.258-0.933l14.26-14.214l2.548-0.947l7.031-7.008L155.49,173.743z
			 M143.066,177.702l1.268,2.791l-16.9,16.901h-4.634l-16.969-16.971l1.235-2.722l-1.235-2.404l16.957-16.956h4.657l16.889,16.887
			L143.066,177.702z"/>
		<path fill="none" stroke="#FFFFFF" stroke-width="2" d="M15.649,93.573"/>
		<path fill="none" stroke="#FFFFFF" stroke-width="2" d="M125.245,204.252"/>
		<path fill="none" stroke="#FFFFFF" stroke-width="2" d="M231.985,94.251"/>
	</g>
	<circle fill="#A98C48" cx="125.657" cy="201.884" r="6.384"/>
</g>
<g id="Bases_and_chalk_lines-ALL">
	<g>
		<path fill="none" stroke="#FFFFFF" stroke-width="2" d="M15.649,93.573"/>
		<path fill="none" stroke="#FFFFFF" stroke-width="2" d="M125.245,204.252"/>
		<path fill="none" stroke="#FFFFFF" stroke-width="2" d="M231.985,94.251"/>
	</g>
	<rect id="mound" x="123.173" y="176.677" fill="#FFFFFF" stroke="#FFFFFF" width="3.98" height="1.551"/>
	
		<rect x="98.413" y="174.554" transform="matrix(0.7073 -0.7069 0.7069 0.7073 -95.2216 122.1922)" fill="#FFFFFF" stroke="#FFFFFF" width="3.045" height="3.043"/>
	
		<rect x="148.888" y="174.554" transform="matrix(0.7073 -0.7069 0.7069 0.7073 -80.4461 157.8751)" fill="#FFFFFF" stroke="#FFFFFF" width="3.045" height="3.043"/>
	
		<rect x="123.651" y="149.316" transform="matrix(0.7069 -0.7073 0.7073 0.7069 -70.0005 132.7347)" fill="#FFFFFF" stroke="#FFFFFF" width="3.045" height="3.044"/>
	<polygon id="homeplate" fill="#FFFFFF" stroke="#FFFFFF" points="126.7,201.884 125.162,203.405 123.654,201.884 123.654,200.361 
		126.7,200.361 	"/>
	<polyline fill="none" stroke="#FFFFFF" stroke-width="1.5" points="234.566,94.251 125.177,203.466 17.941,96.187 	"/>
</g>
</svg>
