<?xml version="1.0" encoding="utf-8"?>
<!DOCTYPE svg PUBLIC "-//W3C//DTD SVG 1.1//EN" "http://www.w3.org/Graphics/SVG/1.1/DTD/svg11.dtd">
<svg xmlns="http://www.w3.org/2000/svg" xmlns:xlink="http://www.w3.org/1999/xlink" xml:space="preserve" enable-background="new -14.253 -14.871 250 250" overflow="visible" viewBox="-14.253 -14.871 250 250" height="250px" width="250px" y="0px" x="0px" version="1.1">
<defs>
</defs>
<rect height="1.462" width="4.324" fill="#FFFFFF" y="161.922" x="109.417"></rect>
<rect height="3.089" width="3.088" fill="#FFFFFF" transform="matrix(0.7071 -0.7071 0.7071 0.7071 -64.9966 119.2064)" y="136.517" x="109.852"></rect>
<rect height="3.089" width="3.088" fill="#FFFFFF" transform="matrix(0.7071 -0.7071 0.7071 0.7071 -88.6506 108.8193)" y="159.876" x="85.487"></rect>
<rect height="3.089" width="3.088" fill="#FFFFFF" transform="matrix(0.7071 -0.7071 0.7071 0.7071 -74.5588 143.047)" y="159.98" x="133.85"></rect>
<rect height="3.089" width="3.088" fill="#FFFFFF" y="186.758" x="108.583"></rect>
<rect height="1.462" width="4.324" fill="#FFFFFF" y="161.922" x="109.417"></rect>
<rect height="3.089" width="3.088" fill="#FFFFFF" transform="matrix(0.7071 -0.7071 0.7071 0.7071 -64.9966 119.2064)" y="136.517" x="109.852"></rect>
<rect height="3.089" width="3.088" fill="#FFFFFF" transform="matrix(0.7071 -0.7071 0.7071 0.7071 -88.6506 108.8193)" y="159.876" x="85.487"></rect>
<rect height="3.089" width="3.088" fill="#FFFFFF" transform="matrix(0.7071 -0.7071 0.7071 0.7071 -74.5588 143.047)" y="159.98" x="133.85"></rect>
<rect height="3.089" width="3.088" fill="#FFFFFF" y="186.758" x="108.583"></rect>
<path d="M61.413,171.542L49.08,158.209l-21-42.333l0.333-4L10.08,94.542l0.333-5.666l49-66.667  l42.667-10.333l57,17.666l51.333,59.667l-22.667,22v3.333l-19.333,42.667l-12,13.667l-1.333-1l-26.667,33.333  c0,0-19,16.667-35.667,0.333l-29.333-32.666L61.413,171.542z" stroke="#000000" fill="#AA8D49"></path>
<path d="M111.064,204.118c-10.869,0-17.209-8.151-17.209-8.151L52.08,149.542l-15.667-33.333l-1.667-5L16.08,93.542  l47.333-64.333l38.667-10.333l54,17.666l41.667,54l-17.667,18l1,4.667l-16.333,36c0,0-30.306,37.252-38.157,45.403  C118.74,202.764,114.688,204.118,111.064,204.118z" fill="#0A823C"></path>
<text font-size="11" font-family="'Arial-BoldMT'" fill="#FF0000" transform="matrix(1 0 0 1 0 76.0537)">331</text>
<text font-size="11" font-family="'Arial-BoldMT'" fill="#FF0000" transform="matrix(1 0 0 1 26.8369 40.126)">378</text>
<text font-size="11" font-family="'Arial-BoldMT'" fill="#FF0000" transform="matrix(1 0 0 1 108.4209 11.2705)">401</text>
<text font-size="11" font-family="'Arial-BoldMT'" fill="#FF0000" transform="matrix(1 0 0 1 85.4204 9.4375)">405</text>
<text font-size="11" font-family="'Arial-BoldMT'" fill="#FF0000" transform="matrix(1 0 0 1 164.9941 29.7607)">381</text>
<text font-size="11" font-family="'Arial-BoldMT'" fill="#FF0000" transform="matrix(1 0 0 1 203.4482 78.7021)">326</text>
<polygon points="202.556,172.171 210.109,184.288 212.793,184.517 " fill="#E5E5E5"></polygon>
<polygon points="200.652,194.993 210.127,184.31 212.811,184.532 " fill="#DDDDDD"></polygon>
<polygon points="200.631,194.953 212.698,187.321 212.91,184.637 " fill="#999999"></polygon>
<polygon points="202.506,172.172 213.088,181.76 212.837,184.442 " fill="#727272"></polygon>
<polygon points="225.165,174.312 213.049,181.866 212.818,184.551 " fill="#DDDDDD"></polygon>
<polygon points="223.375,196.854 212.714,187.354 212.943,184.672 " fill="#D1D1D1"></polygon>
<polygon points="225.145,174.286 215.577,184.886 212.895,184.64 " fill="#999999"></polygon>
<polygon points="223.383,196.898 215.713,184.854 213.028,184.649 " fill="#727272"></polygon>
<g>
	<text font-size="7.6325" font-family="'TimesNewRomanPSMT'" transform="matrix(0.7647 -0.6444 0.6444 0.7647 200.3921 173.9336)">N</text>
</g>
<g>
	<text font-size="7.6325" font-family="'TimesNewRomanPSMT'" transform="matrix(0.7647 -0.6444 0.6444 0.7647 197.2788 201.1904)">W</text>
</g>
<g>
	<text font-size="7.6325" font-family="'TimesNewRomanPSMT'" transform="matrix(0.7647 -0.6444 0.6444 0.7647 225.4497 202.3574)">S</text>
</g>
<g>
	<text font-size="7.6325" font-family="'TimesNewRomanPSMT'" transform="matrix(0.7647 -0.6444 0.6444 0.7647 226.6626 176.3916)">E</text>
</g>
<circle r="5.042" cy="162.831" cx="111.336" fill="#A98C48"></circle>
<path d="M141.236,158.872l3-3.666c0,0-9.381-26.161-32.999-26c-24.027,0.163-34.667,26-34.667,26l3.667,3  l-2.443,2.93l25.152,25.181c0,0-1.321,11.223,7.816,11.223s7.909-10.366,7.837-11.465l24.689-24.609L141.236,158.872z   M130.08,165.622l-16.9,16.901h-4.634l-16.969-16.971v-5.126l16.957-16.956h4.657l16.889,16.887V165.622z" fill="#A98C48"></path>
<rect height="1.551" width="3.98" stroke="#FFFFFF" fill="#FFFFFF" y="161.806" x="108.92"></rect>
<rect height="3.043" width="3.045" stroke="#FFFFFF" fill="#FFFFFF" transform="matrix(0.7073 -0.7069 0.7069 0.7073 -88.881 107.7626)" y="159.683" x="84.16"></rect>
<rect height="3.043" width="3.045" stroke="#FFFFFF" fill="#FFFFFF" transform="matrix(0.7073 -0.7069 0.7069 0.7073 -74.1054 143.4454)" y="159.683" x="134.634"></rect>
<rect height="3.044" width="3.045" stroke="#FFFFFF" fill="#FFFFFF" transform="matrix(0.7069 -0.7073 0.7073 0.7069 -63.6597 118.2957)" y="134.445" x="109.398"></rect>
<polygon points="112.446,187.013 110.908,188.534 109.4,187.013 109.4,185.49 112.446,185.49 " stroke="#FFFFFF" fill="#FFFFFF"></polygon>
<polyline points="220.312,79.38 110.924,188.595 3.688,81.315 " stroke-width="1.5" stroke="#FFFFFF" fill="none"></polyline>
</svg>
