<?xml version="1.0" encoding="utf-8"?>
<!-- Generator: Adobe Illustrator 15.0.2, SVG Export Plug-In . SVG Version: 6.00 Build 0)  -->
<!DOCTYPE svg PUBLIC "-//W3C//DTD SVG 1.1//EN" "http://www.w3.org/Graphics/SVG/1.1/DTD/svg11.dtd">
<svg version="1.1" xmlns="http://www.w3.org/2000/svg" xmlns:xlink="http://www.w3.org/1999/xlink" x="0px" y="0px" width="250px"
	 height="250px" viewBox="0 0 250 250" enable-background="new 0 0 250 250" xml:space="preserve">
<g id="LAA_-_1">
	<path fill="#AA8D49" stroke="#000000" d="M125.526,233.66c-13.333,0-25.333-17-25.333-17l-72.096-95.819
		c0,0-5.948-14.654,4.841-27.409L65.26,57.249l70.768-25.479l84.778,61.486c0,0,9.343,9.918,2.409,19.667l-70.022,103.402
		C153.193,216.326,140.859,233.66,125.526,233.66z"/>
	<path fill="#0A823B" d="M125.559,223.075c-12.041,0-22.877-15.352-22.877-15.352L37.56,121.52c0,0-5.744-10.354,2.257-22.189
		l30.35-35.068l65.982-24.509l80.947,57.25c0,0,8.68,6.995-1.896,18.853l-64.658,91.565
		C150.542,207.421,139.405,223.075,125.559,223.075z"/>
	<polygon fill="#E5E5E5" points="214.615,189.352 224.34,199.807 227.018,199.52 	"/>
	<polygon fill="#DDDDDD" points="217.096,212.118 224.361,199.825 227.038,199.531 	"/>
	<polygon fill="#999999" points="217.067,212.083 227.459,202.291 227.157,199.614 	"/>
	<polygon fill="#727272" points="214.566,189.362 226.782,196.757 227.047,199.438 	"/>
	<polygon fill="#DDDDDD" points="237.218,187.144 226.763,196.869 227.049,199.548 	"/>
	<polygon fill="#D1D1D1" points="239.758,209.613 227.481,202.321 227.195,199.644 	"/>
	<polygon fill="#999999" points="237.192,187.122 229.821,199.351 227.141,199.621 	"/>
	<polygon fill="#727272" points="239.773,209.655 229.948,199.294 227.274,199.604 	"/>
	<g>
		<text transform="matrix(0.6278 -0.7783 0.7783 0.6278 212.8252 191.5059)" font-family="'TimesNewRomanPSMT'" font-size="7.6319">N</text>
	</g>
	<g>
		<text transform="matrix(0.6278 -0.7783 0.7783 0.6278 214.9619 218.8574)" font-family="'TimesNewRomanPSMT'" font-size="7.6319">W</text>
	</g>
	<g>
		<text transform="matrix(0.6278 -0.7783 0.7783 0.6278 242.8389 214.627)" font-family="'TimesNewRomanPSMT'" font-size="7.6319">S</text>
	</g>
	<g>
		<text transform="matrix(0.6278 -0.7783 0.7783 0.6278 239.0801 188.9062)" font-family="'TimesNewRomanPSMT'" font-size="7.6319">E</text>
	</g>
	<text transform="matrix(1 0 0 1 15.6494 93.5732)" fill="#FF0000" font-family="'Arial-BoldMT'" font-size="10">330</text>
	<text transform="matrix(1 0 0 1 129.228 28.1865)"><tspan x="0" y="0" fill="#FF0000" font-family="'Arial-BoldMT'" font-size="10">400</tspan><tspan x="16.685" y="0" fill="#FF0000" font-family="'Arial-BoldMT'" font-size="10" letter-spacing="16">	</tspan></text>
	<text transform="matrix(1 0 0 1 225.7759 93.5732)" fill="#FF0000" font-family="'Arial-BoldMT'" font-size="10">330</text>
	<text transform="matrix(1 0 0 1 42.8589 60.2852)" fill="#FF0000" font-family="'Arial-BoldMT'" font-size="10">365</text>
	<text transform="matrix(1 0 0 1 90.8237 39.7529)" fill="#FF0000" font-family="'Arial-BoldMT'" font-size="10">387</text>
	<text transform="matrix(1 0 0 1 161.5269 48.3496)" fill="#FF0000" font-family="'Arial-BoldMT'" font-size="10">370</text>
	<text transform="matrix(1 0 0 1 186.9214 61.6426)" fill="#FF0000" font-family="'Arial-BoldMT'" font-size="10">365</text>
</g>
<g id="Grass_Sand_1_-_most">
	<g>
		<circle fill="#A98C48" cx="125.59" cy="177.702" r="5.042"/>
		<path fill="#A98C48" d="M155.49,173.743l3-3.666c0,0-9.381-26.161-32.999-26c-24.027,0.163-34.667,26-34.667,26l3.667,3
			l-2.443,2.93l25.152,25.181c0,0-1.321,11.223,7.816,11.223s7.909-10.366,7.837-11.465l24.689-24.609L155.49,173.743z
			 M144.333,180.493l-16.9,16.901h-4.634l-16.969-16.971v-5.126l16.957-16.956h4.657l16.889,16.887V180.493z"/>
		<path fill="none" stroke="#FFFFFF" stroke-width="2" d="M15.649,93.573"/>
		<path fill="none" stroke="#FFFFFF" stroke-width="2" d="M125.245,204.252"/>
		<path fill="none" stroke="#FFFFFF" stroke-width="2" d="M231.985,94.251"/>
	</g>
</g>
<g id="Bases_and_chalk_lines-ALL">
	<g>
		<path fill="none" stroke="#FFFFFF" stroke-width="2" d="M15.649,93.573"/>
		<path fill="none" stroke="#FFFFFF" stroke-width="2" d="M125.245,204.252"/>
		<path fill="none" stroke="#FFFFFF" stroke-width="2" d="M231.985,94.251"/>
	</g>
	<rect id="mound" x="123.173" y="176.677" fill="#FFFFFF" stroke="#FFFFFF" width="3.98" height="1.551"/>
	
		<rect x="98.413" y="174.554" transform="matrix(0.7073 -0.7069 0.7069 0.7073 -95.2216 122.1922)" fill="#FFFFFF" stroke="#FFFFFF" width="3.045" height="3.043"/>
	
		<rect x="148.888" y="174.554" transform="matrix(0.7073 -0.7069 0.7069 0.7073 -80.4461 157.8751)" fill="#FFFFFF" stroke="#FFFFFF" width="3.045" height="3.043"/>
	
		<rect x="123.651" y="149.316" transform="matrix(0.7069 -0.7073 0.7073 0.7069 -70.0005 132.7347)" fill="#FFFFFF" stroke="#FFFFFF" width="3.045" height="3.044"/>
	<polygon id="homeplate" fill="#FFFFFF" stroke="#FFFFFF" points="126.7,201.884 125.162,203.405 123.654,201.884 123.654,200.361 
		126.7,200.361 	"/>
	<polyline fill="none" stroke="#FFFFFF" stroke-width="1.5" points="234.566,94.251 125.177,203.466 17.941,96.187 	"/>
</g>
</svg>
