<?xml version="1.0" encoding="utf-8"?>
<!-- Generator: Adobe Illustrator 15.0.2, SVG Export Plug-In . SVG Version: 6.00 Build 0)  -->
<!DOCTYPE svg PUBLIC "-//W3C//DTD SVG 1.1//EN" "http://www.w3.org/Graphics/SVG/1.1/DTD/svg11.dtd">
<svg version="1.1" xmlns="http://www.w3.org/2000/svg" xmlns:xlink="http://www.w3.org/1999/xlink" x="0px" y="0px" width="250px"
	 height="250px" viewBox="0 0 250 250" enable-background="new 0 0 250 250" xml:space="preserve">
<g id="ATL_-_16">
	<path fill="#AA8D49" stroke="#000000" d="M231.625,116.294l-6.594-11.209L201.32,56.571l-21.101-14.836
		c0,0-39.812-11.113-50.034-10.782c-58.994,1.902-96.753,47.149-96.753,47.149l-11.539,22.09l-3.297,15.167l18.793,15.495
		l26.652,46.418c0,0,19.453,22.749,24.067,28.023c4.616,5.275,16.054,17.924,19.681,21.55s8.86,7.093,15.453,7.422
		c6.594,0.329,15.97-7.541,25.861-19.08c9.891-11.54,31.979-33.3,31.979-33.3l20.112-33.63L231.625,116.294z"/>
	<path fill="#0A823C" d="M225.349,118.438l-5.785-13.5l-23.758-46.974l-18.32-12.214c0,0-34.314-10.833-44.279-10.512
		c-57.512,1.856-91.108,43.396-91.108,43.396L28.6,103.382l-0.643,14.786l12.213,10.284l25.983,45.252
		c0,0,18.964,22.178,23.463,27.319c4.5,5.144,15.649,17.474,19.186,21.009s8.638,6.915,15.066,7.235
		c6.427,0.321,15.567-7.352,25.21-18.601c9.643-11.25,31.178-32.463,31.178-32.463l19.606-32.785L225.349,118.438z"/>
	<text transform="matrix(1 0 0 1 2.5835 91.2129)" fill="#FF0000" font-family="'Arial-BoldMT'" font-size="11">335</text>
	<text transform="matrix(1 0 0 1 222.4517 91.2129)" fill="#FF0000" font-family="'Arial-BoldMT'" font-size="11">330</text>
	<text transform="matrix(1 0 0 1 194.5464 43.9053)" fill="#FF0000" font-family="'Arial-BoldMT'" font-size="11">390</text>
	<text transform="matrix(1 0 0 1 121.4312 25.1064)" fill="#FF0000" font-family="'Arial-BoldMT'" font-size="11">401</text>
	<text transform="matrix(1 0 0 1 27.3965 59.6982)" fill="#FF0000" font-family="'Arial-BoldMT'" font-size="11">380</text>
	<g>
		<polygon fill="#E5E5E5" points="219.583,186.424 224.941,199.66 227.545,200.347 		"/>
		<polygon fill="#DDDDDD" points="213.784,208.579 224.954,199.684 227.56,200.364 		"/>
		<polygon fill="#999999" points="213.769,208.536 226.97,203.093 227.641,200.484 		"/>
		<polygon fill="#727272" points="219.535,186.417 228.309,197.682 227.601,200.28 		"/>
		<polygon fill="#DDDDDD" points="241.488,192.422 228.252,197.778 227.565,200.384 		"/>
		<polygon fill="#D1D1D1" points="235.848,214.32 226.979,203.129 227.667,200.525 		"/>
		<polygon fill="#999999" points="241.471,192.392 230.224,201.188 227.625,200.485 		"/>
		<polygon fill="#727272" points="235.848,214.364 230.364,201.181 227.754,200.518 		"/>
		<g>
			
				<text transform="matrix(0.8641 -0.5033 0.5033 0.8641 217.1572 187.7988)" font-family="'TimesNewRomanPSMT'" font-size="7.6324">N</text>
		</g>
		<g>
			
				<text transform="matrix(0.8641 -0.5033 0.5033 0.8641 209.3906 214.1104)" font-family="'TimesNewRomanPSMT'" font-size="7.6324">W</text>
		</g>
		<g>
			
				<text transform="matrix(0.8641 -0.5033 0.5033 0.8641 236.9541 220.1035)" font-family="'TimesNewRomanPSMT'" font-size="7.6324">S</text>
		</g>
		<g>
			
				<text transform="matrix(0.8641 -0.5033 0.5033 0.8641 242.6143 194.7324)" font-family="'TimesNewRomanPSMT'" font-size="7.6324">E</text>
		</g>
	</g>
</g>
<g id="Grass_Sand_1_-_most">
	<g>
		<circle fill="#A98C48" cx="125.59" cy="177.702" r="5.042"/>
		<path fill="#A98C48" d="M155.49,173.743l3-3.666c0,0-9.381-26.161-32.999-26c-24.027,0.163-34.667,26-34.667,26l3.667,3
			l-2.443,2.93l25.152,25.181c0,0-1.321,11.223,7.816,11.223s7.909-10.366,7.837-11.465l24.689-24.609L155.49,173.743z
			 M144.333,180.493l-16.9,16.901h-4.634l-16.969-16.971v-5.126l16.957-16.956h4.657l16.889,16.887V180.493z"/>
		<path fill="none" stroke="#FFFFFF" stroke-width="2" d="M15.649,93.573"/>
		<path fill="none" stroke="#FFFFFF" stroke-width="2" d="M125.245,204.252"/>
		<path fill="none" stroke="#FFFFFF" stroke-width="2" d="M231.985,94.251"/>
	</g>
</g>
<g id="Bases_and_chalk_lines-ALL">
	<g>
		<path fill="none" stroke="#FFFFFF" stroke-width="2" d="M15.649,93.573"/>
		<path fill="none" stroke="#FFFFFF" stroke-width="2" d="M125.245,204.252"/>
		<path fill="none" stroke="#FFFFFF" stroke-width="2" d="M231.985,94.251"/>
	</g>
	<rect id="mound" x="123.173" y="176.677" fill="#FFFFFF" stroke="#FFFFFF" width="3.98" height="1.551"/>
	
		<rect x="98.413" y="174.554" transform="matrix(0.7073 -0.7069 0.7069 0.7073 -95.2216 122.1922)" fill="#FFFFFF" stroke="#FFFFFF" width="3.045" height="3.043"/>
	
		<rect x="148.888" y="174.554" transform="matrix(0.7073 -0.7069 0.7069 0.7073 -80.4461 157.8751)" fill="#FFFFFF" stroke="#FFFFFF" width="3.045" height="3.043"/>
	
		<rect x="123.651" y="149.316" transform="matrix(0.7069 -0.7073 0.7073 0.7069 -70.0005 132.7347)" fill="#FFFFFF" stroke="#FFFFFF" width="3.045" height="3.044"/>
	<polygon id="homeplate" fill="#FFFFFF" stroke="#FFFFFF" points="126.7,201.884 125.162,203.405 123.654,201.884 123.654,200.361 
		126.7,200.361 	"/>
	<polyline fill="none" stroke="#FFFFFF" stroke-width="1.5" points="234.566,94.251 125.177,203.466 17.941,96.187 	"/>
</g>
</svg>
