<?xml version="1.0" encoding="utf-8"?>
<!-- Generator: Adobe Illustrator 15.0.2, SVG Export Plug-In . SVG Version: 6.00 Build 0)  -->
<!DOCTYPE svg PUBLIC "-//W3C//DTD SVG 1.1//EN" "http://www.w3.org/Graphics/SVG/1.1/DTD/svg11.dtd">
<svg version="1.1" xmlns="http://www.w3.org/2000/svg" xmlns:xlink="http://www.w3.org/1999/xlink" x="0px" y="0px" width="250px"
	 height="250px" viewBox="0 0 250 250" enable-background="new 0 0 250 250" xml:space="preserve">
<g id="COL_-_19">
	<path fill="#AA8D49" stroke="#000000" d="M15.649,100.188L74.437,29.47l78.169-5.335l79.146,70.985l0.233,6.066l-22.323,22.355
		l0.355,3.86l-18.65,29.88l-47.789,55.328c0,0-6.209,10.338-18.543,10.338s-16-6-19.667-9l-47.734-54.566l-15.111-33.37
		L15.649,100.188z"/>
	<path fill="#0A823C" d="M27.199,100.617L78.437,38.47l71.046-4.674l76.411,63.153l-24.639,26.593l1.082,2.76l-16.298,28.385
		l-41.335,47.979l-5.223,2.235c-1,7.51-7.17,12.894-13.982,13.304c-5.539,0.333-11.585-2.919-16.979-13.952l-5.777-1.583
		l-40.636-46.064l-15.957-37.93L27.199,100.617"/>
	<text transform="matrix(1 0 0 1 36.8599 51.2988)" fill="#FF0000" font-family="'Arial-BoldMT'" font-size="11">390</text>
	<text transform="matrix(1 0 0 1 66.9272 25.6514)" fill="#FF0000" font-family="'Arial-BoldMT'" font-size="11">420</text>
	<text transform="matrix(1 0 0 1 8.356 88.4805)" fill="#FF0000" font-family="'Arial-BoldMT'" font-size="11">347</text>
	<text transform="matrix(1 0 0 1 113.5083 21.5107)" fill="#FF0000" font-family="'Arial-BoldMT'" font-size="11">415</text>
	<text transform="matrix(1 0 0 1 186.3091 47.7373)" fill="#FF0000" font-family="'Arial-BoldMT'" font-size="11">375</text>
	<text transform="matrix(1 0 0 1 227.9917 88.7793)" fill="#FF0000" font-family="'Arial-BoldMT'" font-size="11">350</text>
	<text transform="matrix(1 0 0 1 145.8198 17.6045)" fill="#FF0000" font-family="'Arial-BoldMT'" font-size="11">424</text>
	<polygon fill="#E5E5E5" points="226.169,184.202 224.138,198.336 226.042,200.239 	"/>
	<polygon fill="#DDDDDD" points="210.007,200.428 224.136,198.363 226.046,200.263 	"/>
	<polygon fill="#999999" points="210.017,200.383 224.164,202.323 226.056,200.407 	"/>
	<polygon fill="#727272" points="226.13,184.171 228.044,198.321 226.125,200.211 	"/>
	<polygon fill="#DDDDDD" points="242.08,200.409 227.945,198.377 226.041,200.282 	"/>
	<polygon fill="#D1D1D1" points="226.185,216.493 224.154,202.359 226.056,200.455 	"/>
	<polygon fill="#999999" points="242.08,200.375 227.933,202.315 226.041,200.399 	"/>
	<polygon fill="#727272" points="226.162,216.531 228.058,202.379 226.136,200.492 	"/>
	<g>
		<text transform="matrix(1 0 0 1 223.3818 184.1523)" font-family="'TimesNewRomanPSMT'" font-size="7.6325">N</text>
	</g>
	<g>
		<text transform="matrix(1 0 0 1 203.4375 202.9893)" font-family="'TimesNewRomanPSMT'" font-size="7.6325">W</text>
	</g>
	<g>
		<text transform="matrix(1 0 0 1 224.2285 222.0361)" font-family="'TimesNewRomanPSMT'" font-size="7.6325">S</text>
	</g>
	<g>
		<text transform="matrix(1 0 0 1 241.8887 202.9619)" font-family="'TimesNewRomanPSMT'" font-size="7.6325">E</text>
	</g>
</g>
<g id="Grass_Sand_1_-_most">
	<g>
		<circle fill="#A98C48" cx="125.59" cy="177.702" r="5.042"/>
		<path fill="#A98C48" d="M155.49,173.743l3-3.666c0,0-9.381-26.161-32.999-26c-24.027,0.163-34.667,26-34.667,26l3.667,3
			l-2.443,2.93l25.152,25.181c0,0-1.321,11.223,7.816,11.223s7.909-10.366,7.837-11.465l24.689-24.609L155.49,173.743z
			 M144.333,180.493l-16.9,16.901h-4.634l-16.969-16.971v-5.126l16.957-16.956h4.657l16.889,16.887V180.493z"/>
		<path fill="none" stroke="#FFFFFF" stroke-width="2" d="M15.649,93.573"/>
		<path fill="none" stroke="#FFFFFF" stroke-width="2" d="M125.245,204.252"/>
		<path fill="none" stroke="#FFFFFF" stroke-width="2" d="M231.985,94.251"/>
	</g>
</g>
<g id="Bases_and_chalk_lines-ALL">
	<g>
		<path fill="none" stroke="#FFFFFF" stroke-width="2" d="M15.649,93.573"/>
		<path fill="none" stroke="#FFFFFF" stroke-width="2" d="M125.245,204.252"/>
		<path fill="none" stroke="#FFFFFF" stroke-width="2" d="M231.985,94.251"/>
	</g>
	<rect id="mound" x="123.173" y="176.677" fill="#FFFFFF" stroke="#FFFFFF" width="3.98" height="1.551"/>
	
		<rect x="98.413" y="174.554" transform="matrix(0.7073 -0.7069 0.7069 0.7073 -95.2216 122.1922)" fill="#FFFFFF" stroke="#FFFFFF" width="3.045" height="3.043"/>
	
		<rect x="148.888" y="174.554" transform="matrix(0.7073 -0.7069 0.7069 0.7073 -80.4461 157.8751)" fill="#FFFFFF" stroke="#FFFFFF" width="3.045" height="3.043"/>
	
		<rect x="123.651" y="149.316" transform="matrix(0.7069 -0.7073 0.7073 0.7069 -70.0005 132.7347)" fill="#FFFFFF" stroke="#FFFFFF" width="3.045" height="3.044"/>
	<polygon id="homeplate" fill="#FFFFFF" stroke="#FFFFFF" points="126.7,201.884 125.162,203.405 123.654,201.884 123.654,200.361 
		126.7,200.361 	"/>
	<polyline fill="none" stroke="#FFFFFF" stroke-width="1.5" points="234.566,94.251 125.177,203.466 17.941,96.187 	"/>
</g>
</svg>
