<?xml version="1.0" encoding="utf-8"?>
<!-- Generator: Adobe Illustrator 15.0.2, SVG Export Plug-In . SVG Version: 6.00 Build 0)  -->
<!DOCTYPE svg PUBLIC "-//W3C//DTD SVG 1.1//EN" "http://www.w3.org/Graphics/SVG/1.1/DTD/svg11.dtd">
<svg version="1.1" xmlns="http://www.w3.org/2000/svg" xmlns:xlink="http://www.w3.org/1999/xlink" x="0px" y="0px" width="250px"
	 height="250px" viewBox="0 0 250 250" enable-background="new 0 0 250 250" xml:space="preserve">
<g id="HOU_-_2392">
	<path fill="#AA8D49" stroke="#000000" d="M125.855,222.264c-11.833,0-20.501-10-20.501-10l-47-57l1-13.332L27.017,109.52
		l38.045-38.307l-4.333-8l27.924-24.436c0,0,1.667,2.333,3.667,0.333s21.66-17.162,21.66-17.162s19.666-5.666,28.334,2.666
		l42.906,26.725h4.333l36.426,53.624l-24.291,23.969c0,0,1.833,12.666-7,21.332c-5.521,5.416-49.333,62-49.333,62
		S137.688,222.264,125.855,222.264z"/>
	<path fill="#0A823C" d="M125.164,217.673c-10.688-0.008-17.862-12.384-17.862-12.384l-42.405-52.518l0.914-12.277l-31.328-31.308
		l36.667-36.333l-3.333-7.667l24.271-19.954c0,0,1.504,2.15,3.312,0.311s19.223-15.534,19.223-15.534s17.766-5.201,25.588,2.479
		l40.106,24.104l3.913,0.003l32.481,49.694l-22.338,22.342c0,0,1.646,11.666-6.339,19.639c-4.989,4.982-44.604,57.051-44.604,57.051
		S135.852,217.683,125.164,217.673z"/>
	<text transform="matrix(1 0 0 1 18.9409 96.54)" fill="#FF0000" font-family="'Arial-BoldMT'" font-size="11">315</text>
	<text transform="matrix(1 0 0 1 116.3052 16.5137)" fill="#FF0000" font-family="'Arial-BoldMT'" font-size="11">435</text>
	<text transform="matrix(1 0 0 1 171.1382 37.1553)" fill="#FF0000" font-family="'Arial-BoldMT'" font-size="11">373</text>
	<text transform="matrix(1 0 0 1 52.4707 49.3213)" fill="#FF0000" font-family="'Arial-BoldMT'" font-size="11">362</text>
	<text transform="matrix(1 0 0 1 218.5991 93.3994)" fill="#FF0000" font-family="'Arial-BoldMT'" font-size="11">326</text>
	<polygon fill="#E5E5E5" points="221.784,183.958 223.862,198.085 226.229,199.367 	"/>
	<polygon fill="#DDDDDD" points="210.913,204.116 223.869,198.112 226.24,199.389 	"/>
	<polygon fill="#999999" points="210.909,204.07 225.022,201.9 226.29,199.524 	"/>
	<polygon fill="#727272" points="221.737,183.939 227.602,196.959 226.299,199.316 	"/>
	<polygon fill="#DDDDDD" points="241.651,194.961 227.523,197.04 226.24,199.409 	"/>
	<polygon fill="#D1D1D1" points="230.997,214.907 225.023,201.938 226.305,199.57 	"/>
	<polygon fill="#999999" points="241.641,194.929 228.633,200.818 226.274,199.521 	"/>
	<polygon fill="#727272" points="230.985,214.95 228.772,200.844 226.392,199.583 	"/>
	<g>
		<text transform="matrix(0.9586 -0.2849 0.2849 0.9586 219.1035 184.7061)" font-family="'TimesNewRomanPSMT'" font-size="7.6328">N</text>
	</g>
	<g>
		<text transform="matrix(0.9586 -0.2849 0.2849 0.9586 205.3418 208.4453)" font-family="'TimesNewRomanPSMT'" font-size="7.6328">W</text>
	</g>
	<g>
		<text transform="matrix(0.9586 -0.2849 0.2849 0.9586 230.707 220.7764)" font-family="'TimesNewRomanPSMT'" font-size="7.6328">S</text>
	</g>
	<g>
		<text transform="matrix(0.9586 -0.2849 0.2849 0.9586 242.2012 197.4609)" font-family="'TimesNewRomanPSMT'" font-size="7.6328">E</text>
	</g>
</g>
<g id="Grass_Sand_1_-_most">
	<g>
		<circle fill="#A98C48" cx="125.59" cy="177.702" r="5.042"/>
		<path fill="#A98C48" d="M155.49,173.743l3-3.666c0,0-9.381-26.161-32.999-26c-24.027,0.163-34.667,26-34.667,26l3.667,3
			l-2.443,2.93l25.152,25.181c0,0-1.321,11.223,7.816,11.223s7.909-10.366,7.837-11.465l24.689-24.609L155.49,173.743z
			 M144.333,180.493l-16.9,16.901h-4.634l-16.969-16.971v-5.126l16.957-16.956h4.657l16.889,16.887V180.493z"/>
		<path fill="none" stroke="#FFFFFF" stroke-width="2" d="M15.649,93.573"/>
		<path fill="none" stroke="#FFFFFF" stroke-width="2" d="M125.245,204.252"/>
		<path fill="none" stroke="#FFFFFF" stroke-width="2" d="M231.985,94.251"/>
	</g>
</g>
<g id="Bases_and_chalk_lines-ALL">
	<g>
		<path fill="none" stroke="#FFFFFF" stroke-width="2" d="M15.649,93.573"/>
		<path fill="none" stroke="#FFFFFF" stroke-width="2" d="M125.245,204.252"/>
		<path fill="none" stroke="#FFFFFF" stroke-width="2" d="M231.985,94.251"/>
	</g>
	<rect id="mound" x="123.173" y="176.677" fill="#FFFFFF" stroke="#FFFFFF" width="3.98" height="1.551"/>
	
		<rect x="98.413" y="174.554" transform="matrix(0.7073 -0.7069 0.7069 0.7073 -95.2216 122.1922)" fill="#FFFFFF" stroke="#FFFFFF" width="3.045" height="3.043"/>
	
		<rect x="148.888" y="174.554" transform="matrix(0.7073 -0.7069 0.7069 0.7073 -80.4461 157.8751)" fill="#FFFFFF" stroke="#FFFFFF" width="3.045" height="3.043"/>
	
		<rect x="123.651" y="149.316" transform="matrix(0.7069 -0.7073 0.7073 0.7069 -70.0005 132.7347)" fill="#FFFFFF" stroke="#FFFFFF" width="3.045" height="3.044"/>
	<polygon id="homeplate" fill="#FFFFFF" stroke="#FFFFFF" points="126.7,201.884 125.162,203.405 123.654,201.884 123.654,200.361 
		126.7,200.361 	"/>
	<polyline fill="none" stroke="#FFFFFF" stroke-width="1.5" points="234.566,94.251 125.177,203.466 17.941,96.187 	"/>
</g>
</svg>
