<?xml version="1.0" encoding="utf-8"?>
<!-- Generator: Adobe Illustrator 15.0.2, SVG Export Plug-In . SVG Version: 6.00 Build 0)  -->
<!DOCTYPE svg PUBLIC "-//W3C//DTD SVG 1.1//EN" "http://www.w3.org/Graphics/SVG/1.1/DTD/svg11.dtd">
<svg version="1.1" xmlns="http://www.w3.org/2000/svg" xmlns:xlink="http://www.w3.org/1999/xlink" x="0px" y="0px" width="250px"
	 height="250px" viewBox="0 0 250 250" enable-background="new 0 0 250 250" xml:space="preserve">
<g id="CIN_-_2602">
	<polygon fill="#E5E5E5" points="217.603,212.929 226.856,202.053 226.259,199.428 	"/>
	<polygon fill="#DDDDDD" points="239.927,207.812 226.871,202.03 226.267,199.405 	"/>
	<polygon fill="#999999" points="239.896,207.846 228.958,198.665 226.337,199.277 	"/>
	<polygon fill="#727272" points="217.621,212.977 223.542,199.983 226.174,199.407 	"/>
	<polygon fill="#DDDDDD" points="212.78,190.737 223.656,199.988 226.284,199.392 	"/>
	<polygon fill="#D1D1D1" points="234.8,185.598 228.987,198.641 226.361,199.237 	"/>
	<polygon fill="#999999" points="212.761,190.766 225.764,196.662 226.345,199.293 	"/>
	<polygon fill="#727272" points="234.841,185.578 225.693,196.542 226.313,199.163 	"/>
	<g>
		<text transform="matrix(0.8489 0.5285 -0.5285 0.8489 212.5049 215.9424)" font-family="'Times-Roman'" font-size="7.6328">N</text>
	</g>
	<g>
		<text transform="matrix(0.8357 0.5492 -0.5492 0.8357 237.9727 209.6318)" font-family="'Times-Roman'" font-size="7.6322">W</text>
	</g>
	<g>
		<text transform="matrix(0.8013 0.5983 -0.5983 0.8013 233.2764 184.3223)" font-family="'Times-Roman'" font-size="7.6326">S</text>
	</g>
	<g>
		<text transform="matrix(0.8484 0.5293 -0.5293 0.8484 206.9941 189.8525)" font-family="'Times-Roman'" font-size="7.632">E</text>
	</g>
	<rect x="122.621" y="176.065" fill="#FFFFFF" width="4.324" height="1.462"/>
	<path fill="#AA8D49" stroke="#000000" d="M103.979,214.827c-3.512-1.755-26.303-35.327-29.648-40.138l-9.333-27.333l-39.25-39.305
		c0,0-1-8,0.667-11S81.911,42.63,81.911,42.63l43.679-14.107c0,0,49.491,14.195,61.825,26.529s30.249,42.639,32.249,47.305
		s2,9.666,0,12.666s-28.333,29.334-28.333,29.334s-19.667,38.666-24.667,45.666s-20.333,27.334-27.333,30.667s-11.646,3.62-17,3
		C108.967,222.142,103.979,214.827,103.979,214.827z"/>
	<path fill="#0A823C" d="M106.329,206.712c-3.183-1.603-23.78-32.125-26.803-36.5l-8.4-24.826l-35.791-35.912l-0.506-10.287
		c1.521-2.716,50.082-49.807,50.082-49.807l40.679-14.017c0,0,46.212,14.72,57.376,25.944
		c11.158,11.223,26.824,39.397,28.626,43.637l-0.032,11.494c-1.822,2.716-25.786,26.547-25.786,26.547s-17.944,35.038-22.498,41.377
		c-4.555,6.339-18.522,24.752-24.881,27.759c-6.362,3.007-10.579,3.256-15.437,2.679
		C110.835,213.361,106.329,206.712,106.329,206.712z"/>
	<text transform="matrix(1 0 0 1 9.0728 93.5732)" fill="#FF0000" font-family="'Arial-BoldMT'" font-size="11">328</text>
	<text transform="matrix(1 0 0 1 53.0825 45.5312)" fill="#FF0000" font-family="'Arial-BoldMT'" font-size="11">379</text>
	<text transform="matrix(1 0 0 1 117.5718 21.8643)" fill="#FF0000" font-family="'Arial-BoldMT'" font-size="11">404</text>
	<text transform="matrix(1 0 0 1 181.5728 47.0303)" fill="#FF0000" font-family="'Arial-BoldMT'" font-size="11">370</text>
	<text transform="matrix(1 0 0 1 217.6206 89.6689)" fill="#FF0000" font-family="'Arial-BoldMT'" font-size="11">325</text>
</g>
<g id="Grass_Sand_1_-_most">
	<g>
		<circle fill="#A98C48" cx="125.59" cy="177.702" r="5.042"/>
		<path fill="#A98C48" d="M155.49,173.743l3-3.666c0,0-9.381-26.161-32.999-26c-24.027,0.163-34.667,26-34.667,26l3.667,3
			l-2.443,2.93l25.152,25.181c0,0-1.321,11.223,7.816,11.223s7.909-10.366,7.837-11.465l24.689-24.609L155.49,173.743z
			 M144.333,180.493l-16.9,16.901h-4.634l-16.969-16.971v-5.126l16.957-16.956h4.657l16.889,16.887V180.493z"/>
		<path fill="none" stroke="#FFFFFF" stroke-width="2" d="M15.649,93.573"/>
		<path fill="none" stroke="#FFFFFF" stroke-width="2" d="M125.245,204.252"/>
		<path fill="none" stroke="#FFFFFF" stroke-width="2" d="M231.985,94.251"/>
	</g>
</g>
<g id="Bases_and_chalk_lines-ALL">
	<g>
		<path fill="none" stroke="#FFFFFF" stroke-width="2" d="M15.649,93.573"/>
		<path fill="none" stroke="#FFFFFF" stroke-width="2" d="M125.245,204.252"/>
		<path fill="none" stroke="#FFFFFF" stroke-width="2" d="M231.985,94.251"/>
	</g>
	<rect id="mound" x="123.173" y="176.677" fill="#FFFFFF" stroke="#FFFFFF" width="3.98" height="1.551"/>
	
		<rect x="98.413" y="174.554" transform="matrix(0.7073 -0.7069 0.7069 0.7073 -95.2216 122.1922)" fill="#FFFFFF" stroke="#FFFFFF" width="3.045" height="3.043"/>
	
		<rect x="148.888" y="174.554" transform="matrix(0.7073 -0.7069 0.7069 0.7073 -80.4461 157.8751)" fill="#FFFFFF" stroke="#FFFFFF" width="3.045" height="3.043"/>
	
		<rect x="123.651" y="149.316" transform="matrix(0.7069 -0.7073 0.7073 0.7069 -70.0005 132.7347)" fill="#FFFFFF" stroke="#FFFFFF" width="3.045" height="3.044"/>
	<polygon id="homeplate" fill="#FFFFFF" stroke="#FFFFFF" points="126.7,201.884 125.162,203.405 123.654,201.884 123.654,200.361 
		126.7,200.361 	"/>
	<polyline fill="none" stroke="#FFFFFF" stroke-width="1.5" points="234.566,94.251 125.177,203.466 17.941,96.187 	"/>
</g>
</svg>
