<?xml version="1.0" encoding="utf-8"?>
<!-- Generator: Adobe Illustrator 15.0.2, SVG Export Plug-In . SVG Version: 6.00 Build 0)  -->
<!DOCTYPE svg PUBLIC "-//W3C//DTD SVG 1.1//EN" "http://www.w3.org/Graphics/SVG/1.1/DTD/svg11.dtd">
<svg version="1.1" xmlns="http://www.w3.org/2000/svg" xmlns:xlink="http://www.w3.org/1999/xlink" x="0px" y="0px" width="250px"
	 height="250px" viewBox="0 0 250 250" enable-background="new 0 0 250 250" xml:space="preserve">
<g id="BOS_3">
	<path fill="#AA8D49" stroke="#000000" d="M104.516,223.29l-34-47l-4.367-30.771l-36.774-37.852l74.427-68.479l4.311,0.739
		L151.4,22.952l6,16.188l67.782,34.148c0,0,6,15.001-3,30.668c-9.855,17.158-32.699,42.229-32.699,42.229L165.85,199.29l-17,23.333
		l-14.334,5.334l-17.667,0.333L104.516,223.29z"/>
	<path fill="#0A823C" d="M125.503,220.303c-12.856,0-20.932-11.776-20.932-11.776L75.16,173.502l-4.344-31.813l-35.987-33.796
		l69.987-61.373l36.333-8.333l78.113,38.333l2.884,12.007l-5.843,15.119l-31.74,40.431l-19.795,44.393l-18.161,20.058
		C146.607,208.526,138.499,220.303,125.503,220.303z"/>
	<path fill="none" stroke="#FFFFFF" stroke-width="2" d="M21.516,117.957"/>
	<path fill="none" stroke="#FFFFFF" stroke-width="2" d="M125.182,204.79"/>
	<path fill="none" stroke="#FFFFFF" stroke-width="2" d="M222.516,104.957"/>
	<text transform="matrix(1 0 0 1 17.9409 96.5039)" fill="#FF0000" font-family="'Arial-BoldMT'" font-size="11">310</text>
	<text transform="matrix(1 0 0 1 143.6001 18.3271)" fill="#FF0000" font-family="'Arial-BoldMT'" font-size="11">420</text>
	<text transform="matrix(1 0 0 1 114.2974 27.251)" fill="#FF0000" font-family="'Arial-BoldMT'" font-size="11">390</text>
	<text transform="matrix(1 0 0 1 164.7681 38.1533)" fill="#FF0000" font-family="'Arial-BoldMT'" font-size="11">383</text>
	<text transform="matrix(1 0 0 1 87.8687 35.7881)" fill="#FF0000" font-family="'Arial-BoldMT'" font-size="11">379</text>
	<text transform="matrix(1 0 0 1 222.146 120.6572)" fill="#FF0000" font-family="'Arial-BoldMT'" font-size="11">302</text>
	<text transform="matrix(1 0 0 1 222.5161 69.7832)" fill="#FF0000" font-family="'Arial-BoldMT'" font-size="11">380</text>
	<polygon fill="#E5E5E5" points="216.354,187.219 223.757,199.43 226.438,199.689 	"/>
	<polygon fill="#DDDDDD" points="214.171,210.017 223.775,199.45 226.455,199.706 	"/>
	<polygon fill="#999999" points="214.15,209.977 226.31,202.493 226.555,199.811 	"/>
	<polygon fill="#727272" points="216.303,187.221 226.766,196.938 226.483,199.617 	"/>
	<polygon fill="#DDDDDD" points="238.935,189.639 226.726,197.043 226.463,199.725 	"/>
	<polygon fill="#D1D1D1" points="236.87,212.156 226.326,202.526 226.586,199.848 	"/>
	<polygon fill="#999999" points="238.915,189.611 229.217,200.093 226.538,199.815 	"/>
	<polygon fill="#727272" points="236.875,212.2 229.354,200.062 226.671,199.826 	"/>
	<g>
		<text transform="matrix(0.7725 -0.635 0.635 0.7725 214.1768 188.9668)" font-family="'TimesNewRomanPSMT'" font-size="7.6324">N</text>
	</g>
	<g>
		<text transform="matrix(0.7725 -0.635 0.635 0.7725 210.7188 216.1816)" font-family="'TimesNewRomanPSMT'" font-size="7.6324">W</text>
	</g>
	<g>
		<text transform="matrix(0.7725 -0.635 0.635 0.7725 238.874 217.6934)" font-family="'TimesNewRomanPSMT'" font-size="7.6324">S</text>
	</g>
	<g>
		<text transform="matrix(0.7725 -0.635 0.635 0.7725 240.4062 191.7441)" font-family="'TimesNewRomanPSMT'" font-size="7.6324">E</text>
	</g>
</g>
<g id="Grass_Sand_1_-_most">
	<g>
		<circle fill="#A98C48" cx="125.59" cy="177.702" r="5.042"/>
		<path fill="#A98C48" d="M155.49,173.743l3-3.666c0,0-9.381-26.161-32.999-26c-24.027,0.163-34.667,26-34.667,26l3.667,3
			l-2.443,2.93l25.152,25.181c0,0-1.321,11.223,7.816,11.223s7.909-10.366,7.837-11.465l24.689-24.609L155.49,173.743z
			 M144.333,180.493l-16.9,16.901h-4.634l-16.969-16.971v-5.126l16.957-16.956h4.657l16.889,16.887V180.493z"/>
		<path fill="none" stroke="#FFFFFF" stroke-width="2" d="M15.649,93.573"/>
		<path fill="none" stroke="#FFFFFF" stroke-width="2" d="M125.245,204.252"/>
		<path fill="none" stroke="#FFFFFF" stroke-width="2" d="M231.985,94.251"/>
	</g>
</g>
<g id="Bases_and_chalk_lines-ALL">
	<g>
		<path fill="none" stroke="#FFFFFF" stroke-width="2" d="M15.649,93.573"/>
		<path fill="none" stroke="#FFFFFF" stroke-width="2" d="M125.245,204.252"/>
		<path fill="none" stroke="#FFFFFF" stroke-width="2" d="M231.985,94.251"/>
	</g>
	<rect id="mound" x="123.173" y="176.677" fill="#FFFFFF" stroke="#FFFFFF" width="3.98" height="1.551"/>
	
		<rect x="98.413" y="174.554" transform="matrix(0.7073 -0.7069 0.7069 0.7073 -95.2216 122.1922)" fill="#FFFFFF" stroke="#FFFFFF" width="3.045" height="3.043"/>
	
		<rect x="148.888" y="174.554" transform="matrix(0.7073 -0.7069 0.7069 0.7073 -80.4461 157.8751)" fill="#FFFFFF" stroke="#FFFFFF" width="3.045" height="3.043"/>
	
		<rect x="123.651" y="149.316" transform="matrix(0.7069 -0.7073 0.7073 0.7069 -70.0005 132.7347)" fill="#FFFFFF" stroke="#FFFFFF" width="3.045" height="3.044"/>
	<polygon id="homeplate" fill="#FFFFFF" stroke="#FFFFFF" points="126.7,201.884 125.162,203.405 123.654,201.884 123.654,200.361 
		126.7,200.361 	"/>
	<polyline fill="none" stroke="#FFFFFF" stroke-width="1.5" points="234.566,94.251 125.177,203.466 17.941,96.187 	"/>
</g>
</svg>
