<?xml version="1.0" encoding="utf-8"?>
<!-- Generator: Adobe Illustrator 15.0.2, SVG Export Plug-In . SVG Version: 6.00 Build 0)  -->
<!DOCTYPE svg PUBLIC "-//W3C//DTD SVG 1.1//EN" "http://www.w3.org/Graphics/SVG/1.1/DTD/svg11.dtd">
<svg version="1.1" xmlns="http://www.w3.org/2000/svg" xmlns:xlink="http://www.w3.org/1999/xlink" x="0px" y="0px" width="250px"
	 height="250px" viewBox="0 0 250 250" enable-background="new 0 0 250 250" xml:space="preserve">
<g id="MIL_-_32">
	<path fill="#AA8D49" stroke="#000000" d="M233.177,99.413c0,0-12.123-12.124-15.952-14.995c-3.828-2.872-9.571-11.806-9.571-11.806
		s0,0-1.276-2.232s-14.677-14.081-16.271-15.357c-1.596-1.275-33.979-16.628-33.979-16.628s-1.277-0.553-3.828-4.7
		c-13.081-3.828-42.674-3.35-49.055-0.479l-8.613,8.528L67.889,50.69L43.423,63.52L24.205,86.876l-4.467,16.271l26.078,25.884
		l2.553,9.891l21.376,33.499l25.212,32.722c8.872,12.194,16.206,20.878,28.707,20.878c7.841,0,13.737-3.261,18.136-8.73
		c5.915-6.646,33.869-41.679,33.869-41.679l15.314-29.672l-0.638-2.552L233.177,99.413z"/>
	<text transform="matrix(1 0 0 1 1.2974 105.042)" fill="#FF0000" font-family="'Arial-BoldMT'" font-size="11">344</text>
	<text transform="matrix(1 0 0 1 225.269 88.041)" fill="#FF0000" font-family="'Arial-BoldMT'" font-size="11">345</text>
	<text transform="matrix(1 0 0 1 194.9829 53.0615)" fill="#FF0000" font-family="'Arial-BoldMT'" font-size="11">374</text>
	<text transform="matrix(1 0 0 1 116.8989 26.2764)" fill="#FF0000" font-family="'Arial-BoldMT'" font-size="11">400</text>
	<text transform="matrix(1 0 0 1 41.9893 52.8281)" fill="#FF0000" font-family="'Arial-BoldMT'" font-size="11">371</text>
	<path fill="#0A823C" d="M227.545,99.926c0,0-11.464-11.463-15.084-14.179c-3.62-2.714-9.05-11.16-9.05-11.16s0,0-1.207-2.113
		c-1.206-2.11-13.876-13.367-15.384-14.573c-1.509-1.207-32.292-15.847-32.292-15.847s-1.209-0.413-3.621-4.334
		c-12.368-3.62-40.36-3.09-46.394-0.375l-8.145,7.954l-26.848,8.98L47.648,65.997L29.594,88.206l-4.223,15.386l24.791,23.691
		l2.414,10.257l20.211,31.673l23.839,30.939c8.388,11.53,15.322,19.74,27.143,19.74c7.413,0,12.989-3.082,17.146-8.254
		c5.594-6.283,32.025-39.408,32.025-39.408l14.584-28.003l-1.288-1.724L227.545,99.926z"/>
	<polygon fill="#E5E5E5" points="216.458,213.511 226.185,203.057 225.705,200.407 	"/>
	<polygon fill="#DDDDDD" points="238.987,209.393 226.202,203.035 225.714,200.387 	"/>
	<polygon fill="#999999" points="238.955,209.424 228.436,199.767 225.79,200.262 	"/>
	<polygon fill="#727272" points="216.474,213.559 222.967,200.842 225.623,200.385 	"/>
	<polygon fill="#DDDDDD" points="212.626,191.127 223.08,200.853 225.732,200.373 	"/>
	<polygon fill="#D1D1D1" points="234.853,186.972 228.465,199.742 225.816,200.222 	"/>
	<polygon fill="#999999" points="212.606,191.153 225.334,197.623 225.797,200.276 	"/>
	<polygon fill="#727272" points="234.894,186.954 225.269,197.5 225.771,200.146 	"/>
	<g>
		<text transform="matrix(0.8246 0.5657 -0.5657 0.8246 211.2275 216.291)" font-family="'TimesNewRomanPSMT'" font-size="7.6328">N</text>
	</g>
	<g>
		<text transform="matrix(0.8104 0.5858 -0.5858 0.8104 236.9517 211.1172)" font-family="'TimesNewRomanPSMT'" font-size="7.6322">W</text>
	</g>
	<g>
		<text transform="matrix(0.7739 0.6333 -0.6333 0.7739 233.3892 185.6367)" font-family="'TimesNewRomanPSMT'" font-size="7.6322">S</text>
	</g>
	<g>
		<text transform="matrix(0.824 0.5665 -0.5665 0.824 206.8921 189.9941)" font-family="'TimesNewRomanPSMT'" font-size="7.6317">E</text>
	</g>
</g>
<g id="Grass_Sand_1_-_most">
	<g>
		<circle fill="#A98C48" cx="125.59" cy="177.702" r="5.042"/>
		<path fill="#A98C48" d="M155.49,173.743l3-3.666c0,0-9.381-26.161-32.999-26c-24.027,0.163-34.667,26-34.667,26l3.667,3
			l-2.443,2.93l25.152,25.181c0,0-1.321,11.223,7.816,11.223s7.909-10.366,7.837-11.465l24.689-24.609L155.49,173.743z
			 M144.333,180.493l-16.9,16.901h-4.634l-16.969-16.971v-5.126l16.957-16.956h4.657l16.889,16.887V180.493z"/>
		<path fill="none" stroke="#FFFFFF" stroke-width="2" d="M15.649,93.573"/>
		<path fill="none" stroke="#FFFFFF" stroke-width="2" d="M125.245,204.252"/>
		<path fill="none" stroke="#FFFFFF" stroke-width="2" d="M231.985,94.251"/>
	</g>
</g>
<g id="Bases_and_chalk_lines-ALL">
	<g>
		<path fill="none" stroke="#FFFFFF" stroke-width="2" d="M15.649,93.573"/>
		<path fill="none" stroke="#FFFFFF" stroke-width="2" d="M125.245,204.252"/>
		<path fill="none" stroke="#FFFFFF" stroke-width="2" d="M231.985,94.251"/>
	</g>
	<rect id="mound" x="123.173" y="176.677" fill="#FFFFFF" stroke="#FFFFFF" width="3.98" height="1.551"/>
	
		<rect x="98.413" y="174.554" transform="matrix(0.7073 -0.7069 0.7069 0.7073 -95.2216 122.1922)" fill="#FFFFFF" stroke="#FFFFFF" width="3.045" height="3.043"/>
	
		<rect x="148.888" y="174.554" transform="matrix(0.7073 -0.7069 0.7069 0.7073 -80.4461 157.8751)" fill="#FFFFFF" stroke="#FFFFFF" width="3.045" height="3.043"/>
	
		<rect x="123.651" y="149.316" transform="matrix(0.7069 -0.7073 0.7073 0.7069 -70.0005 132.7347)" fill="#FFFFFF" stroke="#FFFFFF" width="3.045" height="3.044"/>
	<polygon id="homeplate" fill="#FFFFFF" stroke="#FFFFFF" points="126.7,201.884 125.162,203.405 123.654,201.884 123.654,200.361 
		126.7,200.361 	"/>
	<polyline fill="none" stroke="#FFFFFF" stroke-width="1.5" points="234.566,94.251 125.177,203.466 17.941,96.187 	"/>
</g>
</svg>
