<?xml version="1.0" encoding="utf-8"?>
<!-- Generator: Adobe Illustrator 15.0.2, SVG Export Plug-In . SVG Version: 6.00 Build 0)  -->
<!DOCTYPE svg PUBLIC "-//W3C//DTD SVG 1.1//EN" "http://www.w3.org/Graphics/SVG/1.1/DTD/svg11.dtd">
<svg version="1.1" xmlns="http://www.w3.org/2000/svg" xmlns:xlink="http://www.w3.org/1999/xlink" x="0px" y="0px" width="250px"
	 height="250px" viewBox="0 0 250 250" enable-background="new 0 0 250 250" xml:space="preserve">
<g id="MIN_-_3312">
	<path fill="#AA8D49" stroke="#000000" d="M17.525,101.607l21,21.667l17.333,39.667l51.333,52c0,0,17.667,20.332,39-1.834
		s33.667-34.167,33.667-34.167l11.333-19.666l8.333-24l29.5-28.667l-35.542-40.091l2.607-4.33l-11.941-10.848l-41.29-20.265
		l-39.334-2.133L60.192,52.03L17.525,101.607z"/>
	<path fill="#0A823C" d="M24.323,102.044l42.536-44.77l38.958-21.966l36.667,2.132l38.083,16.996l9.583,8.75l-3.067,4.465
		l35.387,38.52l-27.71,27.824l-9.899,25.612l-10,14.667l-34.667,36.333c0,0-12.667,18-29,0s-49.478-49-49.478-49l-19.469-41.069
		L24.323,102.044z"/>
	<text transform="matrix(1 0 0 1 6.2529 89.0332)" fill="#FF0000" font-family="'Arial-BoldMT'" font-size="11">339</text>
	<text transform="matrix(1 0 0 1 118.0376 26.9697)" fill="#FF0000" font-family="'Arial-BoldMT'" font-size="11">404</text>
	<text transform="matrix(1 0 0 1 49.8716 46.6367)" fill="#FF0000" font-family="'Arial-BoldMT'" font-size="11">377</text>
	<text transform="matrix(1 0 0 1 191.0903 52.0889)" fill="#FF0000" font-family="'Arial-BoldMT'" font-size="11">367</text>
	<text transform="matrix(1 0 0 1 217.9683 93.6025)" fill="#FF0000" font-family="'Arial-BoldMT'" font-size="11">328</text>
	<polygon fill="#E5E5E5" points="201.753,200.255 215.888,202.286 217.791,200.382 	"/>
	<polygon fill="#DDDDDD" points="217.98,216.417 215.916,202.288 217.814,200.378 	"/>
	<polygon fill="#999999" points="217.935,216.407 219.875,202.261 217.958,200.368 	"/>
	<polygon fill="#727272" points="201.722,200.294 215.873,198.38 217.763,200.3 	"/>
	<polygon fill="#DDDDDD" points="217.96,184.345 215.929,198.479 217.833,200.384 	"/>
	<polygon fill="#D1D1D1" points="234.044,200.239 219.912,202.271 218.007,200.368 	"/>
	<polygon fill="#999999" points="217.927,184.345 219.867,198.491 217.951,200.384 	"/>
	<polygon fill="#727272" points="234.083,200.263 219.931,198.366 218.044,200.288 	"/>
	<g>
		<text transform="matrix(1 0 0 1 196.5161 203.2061)" font-family="'TimesNewRomanPSMT'" font-size="7.6325">N</text>
	</g>
	<g>
		<text transform="matrix(1 0 0 1 214.6382 222.4326)" font-family="'TimesNewRomanPSMT'" font-size="7.6325">W</text>
	</g>
	<g>
		<text transform="matrix(1 0 0 1 235.0269 202.9922)" font-family="'TimesNewRomanPSMT'" font-size="7.6325">S</text>
	</g>
	<g>
		<text transform="matrix(1 0 0 1 215.9565 183.3369)" font-family="'TimesNewRomanPSMT'" font-size="7.6325">E</text>
	</g>
</g>
<g id="Grass_Sand_1_-_most">
	<g>
		<circle fill="#A98C48" cx="125.59" cy="177.702" r="5.042"/>
		<path fill="#A98C48" d="M155.49,173.743l3-3.666c0,0-9.381-26.161-32.999-26c-24.027,0.163-34.667,26-34.667,26l3.667,3
			l-2.443,2.93l25.152,25.181c0,0-1.321,11.223,7.816,11.223s7.909-10.366,7.837-11.465l24.689-24.609L155.49,173.743z
			 M144.333,180.493l-16.9,16.901h-4.634l-16.969-16.971v-5.126l16.957-16.956h4.657l16.889,16.887V180.493z"/>
		<path fill="none" stroke="#FFFFFF" stroke-width="2" d="M15.649,93.573"/>
		<path fill="none" stroke="#FFFFFF" stroke-width="2" d="M125.245,204.252"/>
		<path fill="none" stroke="#FFFFFF" stroke-width="2" d="M231.985,94.251"/>
	</g>
</g>
<g id="Bases_and_chalk_lines-ALL">
	<g>
		<path fill="none" stroke="#FFFFFF" stroke-width="2" d="M15.649,93.573"/>
		<path fill="none" stroke="#FFFFFF" stroke-width="2" d="M125.245,204.252"/>
		<path fill="none" stroke="#FFFFFF" stroke-width="2" d="M231.985,94.251"/>
	</g>
	<rect id="mound" x="123.173" y="176.677" fill="#FFFFFF" stroke="#FFFFFF" width="3.98" height="1.551"/>
	
		<rect x="98.413" y="174.554" transform="matrix(0.7073 -0.7069 0.7069 0.7073 -95.2216 122.1922)" fill="#FFFFFF" stroke="#FFFFFF" width="3.045" height="3.043"/>
	
		<rect x="148.888" y="174.554" transform="matrix(0.7073 -0.7069 0.7069 0.7073 -80.4461 157.8751)" fill="#FFFFFF" stroke="#FFFFFF" width="3.045" height="3.043"/>
	
		<rect x="123.651" y="149.316" transform="matrix(0.7069 -0.7073 0.7073 0.7069 -70.0005 132.7347)" fill="#FFFFFF" stroke="#FFFFFF" width="3.045" height="3.044"/>
	<polygon id="homeplate" fill="#FFFFFF" stroke="#FFFFFF" points="126.7,201.884 125.162,203.405 123.654,201.884 123.654,200.361 
		126.7,200.361 	"/>
	<polyline fill="none" stroke="#FFFFFF" stroke-width="1.5" points="234.566,94.251 125.177,203.466 17.941,96.187 	"/>
</g>
</svg>
